<svg width="334" height="274" viewBox="0 0 334 274" fill="none" xmlns="http://www.w3.org/2000/svg">
<circle cx="70" cy="78" r="45" stroke="black" stroke-width="2"/>
<circle cx="76" cy="198" r="75" stroke="black" stroke-width="2"/>
<path d="M76 83L84.6603 98.75H67.3397L76 83Z" fill="black"/>
<line x1="82.2" y1="33.4" x2="106.2" y2="1.4" stroke="black" stroke-width="2"/>
<line x1="105.995" y1="4.10151" x2="100.995" y2="53.1015" stroke="black" stroke-width="2"/>
<line x1="3.52256" y1="28.1474" x2="34.5226" y2="47.1474" stroke="black" stroke-width="2"/>
<line x1="4.8508" y1="27.4745" x2="25.8508" y2="61.4745" stroke="black" stroke-width="2"/>
<line x1="41.5" y1="159" x2="41.5" y2="192" stroke="black" stroke-width="3"/>
<line x1="108.5" y1="159" x2="108.5" y2="192" stroke="black" stroke-width="3"/>
<path d="M125.945 253.503C125.945 253.503 189 291 224 194C259 96.9996 331.945 230.503 331.945 230.503" stroke="black"/>
<line x1="41.3641" y1="191.343" x2="25.3641" y2="208.343" stroke="black"/>
<line x1="39.197" y1="190.54" x2="60.197" y2="199.54" stroke="black"/>
<line x1="41.5" y1="192" x2="41.5" y2="208" stroke="black"/>
<line x1="110.73" y1="192.684" x2="95.7295" y2="208.684" stroke="black" stroke-width="2"/>
<line x1="107.874" y1="189.514" x2="117.874" y2="207.514" stroke="black" stroke-width="2"/>
<line x1="110.973" y1="195.232" x2="105.973" y2="216.232" stroke="black" stroke-width="2"/>
<line x1="106.041" y1="89.5017" x2="155.041" y2="93.5017" stroke="black"/>
<line x1="100.27" y1="95.5794" x2="142.27" y2="122.579" stroke="black"/>
<line x1="36.1374" y1="94.4808" x2="1.13736" y2="104.481" stroke="black"/>
<line x1="38.4102" y1="100.286" x2="15.4102" y2="133.286" stroke="black"/>
<circle cx="52.5" cy="70.5" r="6.5" stroke="black" stroke-width="2"/>
<circle cx="90.5" cy="69.5" r="6.5" stroke="black" stroke-width="2"/>
</svg>
