<svg width="21" height="20" viewBox="0 0 41 40" fill="none" xmlns="http://www.w3.org/2000/svg">
<path fill-rule="evenodd" clip-rule="evenodd" d="M0.400024 20C0.400024 8.9375 9.33752 0 20.4 0C31.4625 0 40.4 8.9375 40.4 20C40.4 31.0625 31.4625 40 20.4 40H18.775V39.9375C8.52502 39.125 0.400024 30.5 0.400024 20ZM20.9 36.75C29.9 36.5 37.15 29.0625 37.15 20C37.15 10.75 29.65 3.25 20.4 3.25C11.15 3.25 3.65002 10.75 3.65002 20C3.65002 29.25 11.15 36.75 20.4 36.75H20.9Z" fill="#1c1c1c"/>
<path fill-rule="evenodd" clip-rule="evenodd" d="M12.275 5.375C12.025 5.3125 11.8375 5.25 11.5875 5.125L12.65 2.0625C12.775 2.125 12.9 2.125 13.15 2.1875C13.525 2.3125 13.9625 2.4375 14.2125 2.5625C14.275 2.5625 14.3375 2.625 14.4625 2.625C14.9 2.8125 15.4 3 15.8375 3.1875L15.9 3.25C16.0875 3.375 16.4 3.5 16.65 3.625C16.775 3.6875 16.9 3.75 17.025 3.8125H17.0875H17.15C17.2125 3.875 17.4 3.9375 17.5875 4.0625H17.65C17.65 4.0625 17.7125 4.0625 17.7125 4.125C17.7125 4.125 17.775 4.125 17.775 4.1875C17.775 4.1875 17.775 4.1875 17.8375 4.1875C17.8375 4.1875 17.8375 4.1875 17.9 4.1875C17.9 4.1875 17.9625 4.1875 17.9625 4.25C18.0875 4.3125 18.275 4.4375 18.4 4.5C18.5875 4.625 18.8375 4.75 19.025 4.875C19.2125 5 19.4625 5.1875 19.65 5.25L19.7125 5.3125C19.8375 5.375 19.9625 5.4375 20.025 5.5C20.15 5.5625 20.275 5.6875 20.4 5.75C20.4625 5.8125 20.525 5.8125 20.525 5.875C20.5875 5.9375 20.65 5.9375 20.7125 6C20.775 6.0625 20.775 6.0625 20.8375 6.0625C20.8375 6.0625 20.8375 6.0625 20.9 6.0625H20.9625H21.025C22.8375 7.4375 24.4 9 25.775 10.8125C27.275 12.8125 28.4625 15 29.275 17.375C31.7125 24.25 31.025 32.125 27.15 38.375L24.4 36.6875C27.7125 31.3125 28.3375 24.4375 26.2125 18.4375C25.525 16.4375 24.4625 14.5 23.15 12.8125C21.9625 11.25 20.5875 9.875 19.025 8.6875C18.9625 8.625 18.8375 8.5625 18.775 8.5C18.7125 8.4375 18.65 8.375 18.5875 8.375C18.525 8.3125 18.525 8.3125 18.4625 8.25C18.3375 8.1875 18.275 8.0625 18.15 8C18.0875 7.9375 18.025 7.9375 18.025 7.9375H17.9625V8.125C17.9 8.0625 17.775 8 17.7125 8C17.5875 7.875 17.4625 7.8125 17.3375 7.75L17.275 7.6875L17.2125 7.625C17.2125 7.625 17.15 7.625 17.0875 7.5625C17.025 7.5 16.9 7.4375 16.775 7.375C16.65 7.3125 16.4625 7.1875 16.4 7.125C16.3375 7.125 16.275 7.0625 16.275 7.0625L16.2125 7C16.15 7 16.15 6.9375 16.0875 6.9375C16.0875 6.9375 16.025 6.875 15.9625 6.875C15.9 6.8125 15.8375 6.8125 15.7125 6.75C15.5875 6.6875 15.4625 6.625 15.3375 6.5625C15.0875 6.4375 14.8375 6.3125 14.5875 6.25L14.525 6.1875C14.2125 6.0625 13.8375 5.9375 13.4625 5.75C13.275 5.6875 13.2125 5.625 13.0875 5.625C12.8375 5.5 12.5875 5.4375 12.275 5.375Z" fill="#1c1c1c"/>
<path fill-rule="evenodd" clip-rule="evenodd" d="M19.15 13.0625C24.025 12.1875 28.5875 9.4375 31.65 5.5L34.2125 7.5C30.5875 12.0625 25.4 15.25 19.7125 16.25C16.9 16.75 13.9625 16.75 11.15 16.25C8.33753 15.75 5.58752 14.75 3.08752 13.25L4.77502 10.5C6.90002 11.75 9.27502 12.6875 11.7125 13.125C14.15 13.5 16.65 13.5 19.15 13.0625Z" fill="#1c1c1c"/>
<path fill-rule="evenodd" clip-rule="evenodd" d="M10.4625 36.4374C13.2125 22.3124 27.65 14.4999 39.4 17.6874L38.525 20.8124C28.525 18.0624 16.025 24.8124 13.5875 37.0624L10.4625 36.4374Z" fill="#1c1c1c"/>
</svg>
