<svg width="139" height="204" viewBox="0 0 139 204" fill="none" xmlns="http://www.w3.org/2000/svg">
<path d="M137.047 34.5755C137.047 53.1188 122.014 68.1511 103.471 68.1511H69.0233V1H103.471C122.014 1 137.047 16.0323 137.047 34.5755Z" stroke="black" stroke-width="2"/>
<path d="M1 34.5755C1 53.1188 16.0323 68.1511 34.5756 68.1511H69.0233V1H34.5756C16.0323 1 1 16.0323 1 34.5755Z" stroke="black" stroke-width="2"/>
<path d="M1 101.728C1 120.271 16.0323 135.303 34.5756 135.303H69.0233V68.152H34.5756C16.0323 68.152 1 83.1842 1 101.728Z" stroke="black" stroke-width="2"/>
<path d="M1 168.878C1 187.421 16.2489 202.453 34.7922 202.453C53.5763 202.453 69.0233 187.226 69.0233 168.442V135.302H34.5756C16.0323 135.302 1 150.335 1 168.878Z" stroke="black" stroke-width="2"/>
<path d="M69.0233 101.728C69.0233 120.271 84.0555 135.303 102.599 135.303H103.471C122.014 135.303 137.047 120.271 137.047 101.728C137.047 83.1842 122.014 68.152 103.471 68.152H102.599C84.0555 68.152 69.0233 83.1842 69.0233 101.728Z" stroke="black" stroke-width="2"/>
</svg>
