<svg width="173" height="" viewBox="0 0 173 287" fill="none" xmlns="http://www.w3.org/2000/svg">
<rect x="1.5" y="1" width="170" height="284.666" stroke="black" stroke-width="2"/>
<path d="M78.4792 255.736C78.4792 263.797 70.8234 270.579 61.0506 270.579C51.2779 270.579 43.6221 263.797 43.6221 255.736C43.6221 247.676 51.2779 240.894 61.0506 240.894C70.8234 240.894 78.4792 247.676 78.4792 255.736Z" stroke="black" stroke-width="2"/>
<rect x="47.1324" y="26.649" width="91.0204" height="5.54384" rx="2.77192" stroke="black" stroke-width="2"/>
<rect x="20.5" y="75" width="134" height="68" stroke="black" stroke-width="2"/>
<path d="M20.2375 143.648L83.4998 98.5L111.5 107.506L153.5 76" stroke="black" stroke-width="2"/>
<line x1="23.4912" y1="169" x2="134.509" y2="169" stroke="black" stroke-width="2"/>
<line x1="23.5" y1="180" x2="134.518" y2="180" stroke="black" stroke-width="2"/>
<line x1="23.5" y1="191" x2="155.5" y2="191" stroke="black" stroke-width="2"/>
<line x1="23.5" y1="202" x2="155.5" y2="202" stroke="black" stroke-width="2"/>
<line x1="23.5" y1="213" x2="155.5" y2="213" stroke="black" stroke-width="2"/>
<line x1="23.5" y1="224" x2="155.5" y2="224" stroke="black" stroke-width="2"/>
</svg>
