<svg width="931" height="371" viewBox="0 0 931 371" fill="none" xmlns="http://www.w3.org/2000/svg">
<line x1="2" y1="125" x2="2" y2="313" stroke="white" stroke-width="2"/>
<path d="M1 125C1 125 110.332 157.319 104.797 214.66C99.2608 272 1 321 1 321" stroke="white" stroke-width="2"/>
<line x1="110.952" y1="228.694" x2="145.952" y2="337.694" stroke="white" stroke-width="2"/>
<path d="M107.75 257.567C107.75 257.567 124.846 234.526 140 225C157.538 213.976 170.043 210.173 190.75 209.567" stroke="white" stroke-width="2"/>
<line x1="224.894" y1="214.553" x2="254.894" y2="274.553" stroke="white" stroke-width="2"/>
<line x1="274.969" y1="197.248" x2="254.969" y2="275.248" stroke="white" stroke-width="2"/>
<line x1="255" y1="272" x2="255" y2="338" stroke="white" stroke-width="2"/>
<line x1="481" y1="87" x2="481" y2="371" stroke="white" stroke-width="2"/>
<line x1="584.359" y1="159.933" x2="480.359" y2="199.933" stroke="white" stroke-width="2"/>
<line x1="480.427" y1="206.096" x2="624.427" y2="274.096" stroke="white" stroke-width="2"/>
<line x1="653" y1="151" x2="653" y2="258" stroke="white" stroke-width="2"/>
<path d="M716.496 22.9371L647 117L800 194L680 289" stroke="white" stroke-width="2"/>
<path d="M837.119 7.7057L767.623 101.768L920.623 178.769L800.623 273.769" stroke="white" stroke-width="2"/>
</svg>
