<svg width="163" height="174" viewBox="0 0 163 174" fill="none" xmlns="http://www.w3.org/2000/svg">
<path d="M147.552 147.104C135.664 158.991 120.519 167.087 104.03 170.367C87.542 173.646 70.4514 171.963 54.9197 165.53C39.3879 159.096 26.1128 148.202 16.7728 134.223C7.43292 120.245 2.44775 103.811 2.44775 86.9999C2.44775 70.1885 7.43291 53.7546 16.7728 39.7765C26.1128 25.7983 39.3879 14.9036 54.9197 8.47016C70.4514 2.03671 87.542 0.353424 104.03 3.63317C120.519 6.91291 135.664 15.0084 147.552 26.8958" stroke="white" stroke-width="4" stroke-linecap="round"/>
<circle cx="152.552" cy="33.8666" r="10" fill="white"/>
<path d="M58.7633 26.1423L86.3189 26.1428L58.7662 132.636L29.4478 132.635L58.7633 26.1423Z" fill="white"/>
<path d="M66.4478 26.1331L90.9435 26.1332L146.947 133.131L123.447 133.131L66.4478 26.1331Z" fill="white"/>
<rect x="50.0767" y="102.675" width="26" height="35.9426" transform="rotate(-90.2836 50.0767 102.675)" fill="white"/>
</svg>
