<svg width="156" height="75" viewBox="0 0 156 75" fill="none" xmlns="http://www.w3.org/2000/svg">
<path d="M154.887 5.23692L135.366 17.5763L155.813 28.3124L154.887 5.23692ZM2.3862 32.7371C0.386394 32.709 0.386369 32.7109 0.386344 32.7128C0.386334 32.7137 0.386309 32.7158 0.386291 32.7175C0.386255 32.7209 0.386219 32.7248 0.386187 32.7292C0.386123 32.7382 0.386074 32.7493 0.386071 32.7625C0.386066 32.7889 0.386245 32.824 0.386855 32.8673C0.388075 32.9539 0.391018 33.0737 0.39766 33.2247C0.41094 33.5266 0.439028 33.9535 0.49779 34.4886C0.615265 35.5585 0.855689 37.0643 1.34702 38.8713C2.3304 42.4878 4.31981 47.3125 8.33503 52.2491C16.4054 62.1714 32.3704 72.208 63.7582 74.233L64.0158 70.2413C33.4036 68.2664 18.6183 58.5529 11.4382 49.7252C7.8282 45.2868 6.06741 40.9865 5.20688 37.8218C4.77626 36.2381 4.57131 34.9392 4.47389 34.052C4.42521 33.6087 4.40348 33.269 4.3938 33.0489C4.38896 32.9389 4.38713 32.8589 4.38646 32.8109C4.38612 32.787 4.38607 32.771 4.38607 32.7633C4.38607 32.7594 4.38609 32.7577 4.38608 32.758C4.38608 32.7581 4.38608 32.7588 4.38606 32.76C4.38606 32.7606 4.38604 32.7619 4.38604 32.7622C4.38602 32.7637 4.386 32.7653 2.3862 32.7371ZM63.7582 74.233C107.87 77.079 135.54 42.9991 148.227 22.2155L144.812 20.1315C132.251 40.7096 105.717 72.9317 64.0158 70.2413L63.7582 74.233Z"  fill="black" />
<path d="M53.1796 39.2371V34.5971L53.0596 33.8371V26.0771C53.0596 24.2904 52.5529 22.9171 51.5396 21.9571C50.5529 20.9971 49.0729 20.5171 47.0996 20.5171C45.7396 20.5171 44.4462 20.7437 43.2196 21.1971C41.9929 21.6504 40.9529 22.2504 40.0996 22.9971L38.8196 20.8771C39.8862 19.9704 41.1662 19.2771 42.6596 18.7971C44.1529 18.2904 45.7262 18.0371 47.3796 18.0371C50.0996 18.0371 52.1929 18.7171 53.6596 20.0771C55.1529 21.4104 55.8996 23.4504 55.8996 26.1971V39.2371H53.1796ZM45.9396 39.4371C44.3662 39.4371 42.9929 39.1837 41.8196 38.6771C40.6729 38.1437 39.7929 37.4237 39.1796 36.5171C38.5662 35.5837 38.2596 34.5171 38.2596 33.3171C38.2596 32.2237 38.5129 31.2371 39.0196 30.3571C39.5529 29.4504 40.4062 28.7304 41.5796 28.1971C42.7796 27.6371 44.3796 27.3571 46.3796 27.3571H53.6196V29.4771H46.4596C44.4329 29.4771 43.0196 29.8371 42.2196 30.5571C41.4462 31.2771 41.0596 32.1704 41.0596 33.2371C41.0596 34.4371 41.5262 35.3971 42.4596 36.1171C43.3929 36.8371 44.6996 37.1971 46.3796 37.1971C47.9796 37.1971 49.3529 36.8371 50.4996 36.1171C51.6729 35.3704 52.5262 34.3037 53.0596 32.9171L53.6996 34.8771C53.1662 36.2637 52.2329 37.3704 50.8996 38.1971C49.5929 39.0237 47.9396 39.4371 45.9396 39.4371ZM67.5027 39.2371L59.5827 18.2371H62.3027L69.5027 37.7171H68.2627L75.6627 18.2371H78.1027L85.4227 37.7171H84.1827L91.5027 18.2371H94.1027L86.1427 39.2371H83.4627L76.4227 20.9171H77.2627L70.1827 39.2371H67.5027ZM103.785 39.4371C102.051 39.4371 100.411 39.1971 98.8646 38.7171C97.3179 38.2104 96.1046 37.5837 95.2246 36.8371L96.5046 34.5971C97.3579 35.2371 98.4512 35.7971 99.7846 36.2771C101.118 36.7304 102.518 36.9571 103.985 36.9571C105.985 36.9571 107.425 36.6504 108.305 36.0371C109.185 35.3971 109.625 34.5571 109.625 33.5171C109.625 32.7437 109.371 32.1437 108.865 31.7171C108.385 31.2637 107.745 30.9304 106.945 30.7171C106.145 30.4771 105.251 30.2771 104.265 30.1171C103.278 29.9571 102.291 29.7704 101.305 29.5571C100.345 29.3437 99.4646 29.0371 98.6646 28.6371C97.8646 28.2104 97.2112 27.6371 96.7046 26.9171C96.2246 26.1971 95.9846 25.2371 95.9846 24.0371C95.9846 22.8904 96.3046 21.8637 96.9446 20.9571C97.5846 20.0504 98.5179 19.3437 99.7446 18.8371C100.998 18.3037 102.518 18.0371 104.305 18.0371C105.665 18.0371 107.025 18.2237 108.385 18.5971C109.745 18.9437 110.865 19.4104 111.745 19.9971L110.505 22.2771C109.571 21.6371 108.571 21.1837 107.505 20.9171C106.438 20.6237 105.371 20.4771 104.305 20.4771C102.411 20.4771 101.011 20.8104 100.105 21.4771C99.2246 22.1171 98.7846 22.9437 98.7846 23.9571C98.7846 24.7571 99.0246 25.3837 99.5046 25.8371C100.011 26.2904 100.665 26.6504 101.465 26.9171C102.291 27.1571 103.185 27.3571 104.145 27.5171C105.131 27.6771 106.105 27.8771 107.065 28.1171C108.051 28.3304 108.945 28.6371 109.745 29.0371C110.571 29.4104 111.225 29.9571 111.705 30.6771C112.211 31.3704 112.465 32.2904 112.465 33.4371C112.465 34.6637 112.118 35.7304 111.425 36.6371C110.758 37.5171 109.771 38.2104 108.465 38.7171C107.185 39.1971 105.625 39.4371 103.785 39.4371Z"  fill="black" />
</svg>
