<svg width="215" height="170" viewBox="0 0 215 170" fill="none" xmlns="http://www.w3.org/2000/svg">
<path d="M193.428 59.7241L194.383 59.4292L193.428 59.7241C197.003 71.3061 203.088 79.1085 213.167 80.4745V89.5255C203.088 90.8915 197.003 98.6939 193.428 110.276L194.383 110.571L193.428 110.276C189.758 122.165 189.261 136.682 189.649 147.819C190.034 158.873 181.419 169 169.873 169H45.1427C33.5964 169 24.9817 158.873 25.3671 147.819C25.7545 136.682 25.2574 122.165 21.5873 110.276C18.0122 98.6929 11.9132 90.8914 1.8335 89.5254V80.4745C11.9128 79.1086 18.0122 71.3071 21.5873 59.7241C25.2574 47.835 25.7545 33.3182 25.3666 22.1819C24.9817 11.1269 33.5964 1 45.1427 1H169.873C181.419 1 190.034 11.1269 189.649 22.1819C189.261 33.3182 189.758 47.835 193.428 59.7241Z" stroke="white" stroke-width="2"/>
<rect x="90.4341" y="21.3332" width="11.52" height="128" fill="white"/>
<path d="M101.954 34.7728V25.1735C101.954 25.1735 139.074 27.9895 139.074 54.7415C139.074 81.4935 101.954 81.4935 101.954 81.4935V72.5328C101.954 72.5328 127.328 72.7927 128.194 54.7415C129.091 36.0337 101.954 34.7728 101.954 34.7728Z" fill="white"/>
<path d="M101.954 91.0923V81.4929C101.954 81.4929 139.074 84.3089 139.074 111.061C139.074 137.813 101.954 137.813 101.954 137.813V128.852C101.954 128.852 127.328 129.112 128.194 111.061C129.091 92.3532 101.954 91.0923 101.954 91.0923Z" fill="white"/>
</svg>
