<svg width="151" height="153" viewBox="0 0 151 153" fill="none" xmlns="http://www.w3.org/2000/svg">
<g clip-path="url(#clip0_66_258)">
<path fill-rule="evenodd" clip-rule="evenodd" d="M74.275 0.387695C38.8848 0.387695 8.9392 24.8206 0.5 57.6693C0.5 57.9408 0.5 58.2123 0.5 58.4837C0.5 60.3841 2.13339 62.0129 4.03902 62.0129H34.8013C36.1624 62.0129 37.5236 61.1985 38.0681 59.8411C44.3294 46.2673 58.2133 36.4941 74.275 36.4941C96.3258 36.4941 114.021 54.4116 114.021 76.4012C114.021 98.3908 96.0535 116.308 74.275 116.308C58.2133 116.308 44.3294 106.807 38.0681 92.9613C37.5236 91.6039 36.1624 90.7895 34.8013 90.7895H4.03902C2.13339 90.7895 0.5 92.4183 0.5 94.3187C0.5 94.5901 0.5 94.8616 0.5 95.1331C8.9392 127.982 38.8848 152.415 74.275 152.415C116.199 152.415 150.228 118.48 150.228 76.4012C150.5 34.3223 116.199 0.387695 74.275 0.387695ZM56.3076 76.4012C56.3076 66.3566 64.4746 58.2123 74.5472 58.2123C84.6198 58.2123 92.7868 66.3566 92.7868 76.4012C92.7868 86.4458 84.6198 94.5902 74.5472 94.5902C64.2024 94.5902 56.3076 86.4458 56.3076 76.4012Z"  fill="black" />
</g>
<defs>
<clipPath id="clip0_66_258">
<rect width="150" height="152.027"  fill="black" transform="translate(0.5 0.387695)"/>
</clipPath>
</defs>
</svg>
