<svg width="165" height="170" viewBox="0 0 165 170" fill="none" xmlns="http://www.w3.org/2000/svg">
<g clip-path="url(#clip0_66_178)">
<mask id="path-1-inside-1_66_178" fill="white">
<path fill-rule="evenodd" clip-rule="evenodd" d="M163.008 37.805C163.068 38.0278 163.099 38.2575 163.099 38.4882V74.3582C163.099 74.8186 162.978 75.2709 162.747 75.6693C162.516 76.0676 162.185 76.398 161.785 76.6271L131.679 93.9605V128.317C131.679 129.252 131.182 130.115 130.371 130.586L67.5267 166.763C67.3829 166.845 67.226 166.897 67.069 166.953C67.0102 166.972 66.9546 167.008 66.8925 167.025C66.4532 167.14 65.9914 167.14 65.5521 167.025C65.4802 167.005 65.4148 166.966 65.3462 166.94C65.2023 166.887 65.0519 166.842 64.9146 166.763L2.08327 130.586C1.68412 130.356 1.35247 130.026 1.12174 129.628C0.891013 129.229 0.769359 128.777 0.769043 128.317L0.769043 20.7069C0.769043 20.4715 0.801735 20.2427 0.860581 20.0204C0.880197 19.9452 0.925966 19.8765 0.95212 19.8013C1.00116 19.664 1.04693 19.5234 1.11885 19.3959C1.16789 19.3109 1.23981 19.2423 1.29866 19.1638C1.37385 19.0592 1.4425 18.9513 1.53077 18.8598C1.60597 18.7846 1.70404 18.729 1.78904 18.6636C1.88385 18.5852 1.96885 18.5002 2.07674 18.438L33.4973 0.349387C33.8951 0.120477 34.346 0 34.805 0C35.264 0 35.7149 0.120477 36.1127 0.349387L67.53 18.438H67.5365C67.6412 18.5034 67.7294 18.5852 67.8242 18.6604C67.9092 18.7257 68.004 18.7846 68.0792 18.8565C68.1708 18.9513 68.2362 19.0592 68.3146 19.1638C68.3702 19.2423 68.4454 19.3109 68.4912 19.3959C68.5664 19.5267 68.6089 19.664 68.6612 19.8013C68.6873 19.8765 68.7331 19.9452 68.7527 20.0236C68.8129 20.2464 68.8437 20.4761 68.8442 20.7069V87.919L95.0242 72.8446V38.485C95.0242 38.2561 95.0569 38.024 95.1158 37.805C95.1387 37.7265 95.1812 37.6579 95.2073 37.5827C95.2596 37.4454 95.3054 37.3048 95.3773 37.1773C95.4264 37.0923 95.4983 37.0236 95.5539 36.9452C95.6323 36.8405 95.6977 36.7327 95.7892 36.6411C95.8644 36.5659 95.9592 36.5104 96.0442 36.445C96.1423 36.3665 96.2273 36.2815 96.3319 36.2194L127.756 18.1307C128.153 17.9015 128.604 17.7808 129.063 17.7808C129.523 17.7808 129.973 17.9015 130.371 18.1307L161.788 36.2194C161.9 36.2848 161.985 36.3665 162.083 36.4417C162.164 36.5071 162.259 36.5659 162.334 36.6379C162.426 36.7327 162.491 36.8405 162.57 36.9452C162.629 37.0236 162.701 37.0923 162.746 37.1773C162.822 37.3048 162.864 37.4454 162.916 37.5827C162.946 37.6579 162.988 37.7265 163.008 37.805ZM157.862 72.8446V43.0161L146.868 49.3454L131.679 58.0905V87.919L157.865 72.8446H157.862ZM126.445 126.803V96.9552L111.504 105.488L68.841 129.837V159.966L126.445 126.803ZM6.00635 25.2348V126.803L63.6037 159.963V129.84L33.5137 112.811L33.5038 112.804L33.4908 112.798C33.3894 112.739 33.3044 112.654 33.2096 112.582C33.1279 112.517 33.0331 112.464 32.9612 112.392L32.9546 112.383C32.8696 112.301 32.8108 112.2 32.7389 112.108C32.6735 112.02 32.595 111.945 32.5427 111.853L32.5394 111.843C32.4806 111.745 32.4446 111.627 32.4021 111.516C32.3596 111.418 32.304 111.327 32.2779 111.222C32.2452 111.098 32.2387 110.964 32.2256 110.836C32.2125 110.738 32.1863 110.64 32.1863 110.542V110.536V40.3092L17.0008 31.5607L6.00635 25.2348ZM34.8083 5.639L8.63154 20.7069L34.8017 35.7748L60.9752 20.7036L34.8017 5.639H34.8083ZM48.4214 99.6752L63.6069 90.9332V25.2348L52.6125 31.564L37.4237 40.3092V106.008L48.4214 99.6752ZM129.063 23.4204L102.89 38.4882L129.063 53.5561L155.234 38.485L129.063 23.4204ZM126.445 58.0905L111.256 49.3454L100.262 43.0161V72.8446L115.447 81.5865L126.445 87.919V58.0905ZM66.219 125.309L104.61 103.392L123.8 92.4404L97.6462 77.3823L67.5333 94.719L40.0881 110.519L66.219 125.309Z"/>
</mask>
<path fill-rule="evenodd" clip-rule="evenodd" d="M163.008 37.805C163.068 38.0278 163.099 38.2575 163.099 38.4882V74.3582C163.099 74.8186 162.978 75.2709 162.747 75.6693C162.516 76.0676 162.185 76.398 161.785 76.6271L131.679 93.9605V128.317C131.679 129.252 131.182 130.115 130.371 130.586L67.5267 166.763C67.3829 166.845 67.226 166.897 67.069 166.953C67.0102 166.972 66.9546 167.008 66.8925 167.025C66.4532 167.14 65.9914 167.14 65.5521 167.025C65.4802 167.005 65.4148 166.966 65.3462 166.94C65.2023 166.887 65.0519 166.842 64.9146 166.763L2.08327 130.586C1.68412 130.356 1.35247 130.026 1.12174 129.628C0.891013 129.229 0.769359 128.777 0.769043 128.317L0.769043 20.7069C0.769043 20.4715 0.801735 20.2427 0.860581 20.0204C0.880197 19.9452 0.925966 19.8765 0.95212 19.8013C1.00116 19.664 1.04693 19.5234 1.11885 19.3959C1.16789 19.3109 1.23981 19.2423 1.29866 19.1638C1.37385 19.0592 1.4425 18.9513 1.53077 18.8598C1.60597 18.7846 1.70404 18.729 1.78904 18.6636C1.88385 18.5852 1.96885 18.5002 2.07674 18.438L33.4973 0.349387C33.8951 0.120477 34.346 0 34.805 0C35.264 0 35.7149 0.120477 36.1127 0.349387L67.53 18.438H67.5365C67.6412 18.5034 67.7294 18.5852 67.8242 18.6604C67.9092 18.7257 68.004 18.7846 68.0792 18.8565C68.1708 18.9513 68.2362 19.0592 68.3146 19.1638C68.3702 19.2423 68.4454 19.3109 68.4912 19.3959C68.5664 19.5267 68.6089 19.664 68.6612 19.8013C68.6873 19.8765 68.7331 19.9452 68.7527 20.0236C68.8129 20.2464 68.8437 20.4761 68.8442 20.7069V87.919L95.0242 72.8446V38.485C95.0242 38.2561 95.0569 38.024 95.1158 37.805C95.1387 37.7265 95.1812 37.6579 95.2073 37.5827C95.2596 37.4454 95.3054 37.3048 95.3773 37.1773C95.4264 37.0923 95.4983 37.0236 95.5539 36.9452C95.6323 36.8405 95.6977 36.7327 95.7892 36.6411C95.8644 36.5659 95.9592 36.5104 96.0442 36.445C96.1423 36.3665 96.2273 36.2815 96.3319 36.2194L127.756 18.1307C128.153 17.9015 128.604 17.7808 129.063 17.7808C129.523 17.7808 129.973 17.9015 130.371 18.1307L161.788 36.2194C161.9 36.2848 161.985 36.3665 162.083 36.4417C162.164 36.5071 162.259 36.5659 162.334 36.6379C162.426 36.7327 162.491 36.8405 162.57 36.9452C162.629 37.0236 162.701 37.0923 162.746 37.1773C162.822 37.3048 162.864 37.4454 162.916 37.5827C162.946 37.6579 162.988 37.7265 163.008 37.805ZM157.862 72.8446V43.0161L146.868 49.3454L131.679 58.0905V87.919L157.865 72.8446H157.862ZM126.445 126.803V96.9552L111.504 105.488L68.841 129.837V159.966L126.445 126.803ZM6.00635 25.2348V126.803L63.6037 159.963V129.84L33.5137 112.811L33.5038 112.804L33.4908 112.798C33.3894 112.739 33.3044 112.654 33.2096 112.582C33.1279 112.517 33.0331 112.464 32.9612 112.392L32.9546 112.383C32.8696 112.301 32.8108 112.2 32.7389 112.108C32.6735 112.02 32.595 111.945 32.5427 111.853L32.5394 111.843C32.4806 111.745 32.4446 111.627 32.4021 111.516C32.3596 111.418 32.304 111.327 32.2779 111.222C32.2452 111.098 32.2387 110.964 32.2256 110.836C32.2125 110.738 32.1863 110.64 32.1863 110.542V110.536V40.3092L17.0008 31.5607L6.00635 25.2348ZM34.8083 5.639L8.63154 20.7069L34.8017 35.7748L60.9752 20.7036L34.8017 5.639H34.8083ZM48.4214 99.6752L63.6069 90.9332V25.2348L52.6125 31.564L37.4237 40.3092V106.008L48.4214 99.6752ZM129.063 23.4204L102.89 38.4882L129.063 53.5561L155.234 38.485L129.063 23.4204ZM126.445 58.0905L111.256 49.3454L100.262 43.0161V72.8446L115.447 81.5865L126.445 87.919V58.0905ZM66.219 125.309L104.61 103.392L123.8 92.4404L97.6462 77.3823L67.5333 94.719L40.0881 110.519L66.219 125.309Z"  fill="black" stroke="black" stroke-width="1" mask="url(#path-1-inside-1_66_178)"/>
</g>
<defs>
<clipPath id="clip0_66_178">
<rect width="163.462" height="170"  fill="black" transform="translate(0.769043)"/>
</clipPath>
</defs>
</svg>
