<svg width="81" height="170" viewBox="0 0 81 170" fill="none" xmlns="http://www.w3.org/2000/svg">
<path d="M55.2398 18.8815C48.1011 10.4824 41.954 1.81871 40.7642 0.0992025C40.632 -0.0330675 40.4337 -0.0330675 40.3015 0.0992025C39.0457 1.88485 32.8985 10.4824 25.7599 18.9477C-35.447 97.0531 35.4103 149.763 35.4103 149.763L36.0052 150.16C36.5339 158.294 37.8559 170 37.8559 170H40.4998H43.1438C43.1438 170 44.4657 158.36 44.9945 150.16L45.5894 149.697C45.5894 149.697 116.447 97.0531 55.2398 18.8815ZM40.4998 148.572C40.4998 148.572 37.3271 145.861 36.4678 144.472V144.34L40.3015 59.29C40.3015 59.0255 40.6981 59.0255 40.6981 59.29L44.4657 144.273V144.406C43.6065 145.861 40.4998 148.572 40.4998 148.572Z"  fill="black" />
</svg>
