<svg width="203" height="170" viewBox="0 0 203 170" fill="none" xmlns="http://www.w3.org/2000/svg">
<path fill-rule="evenodd" clip-rule="evenodd" d="M186.364 131.562C175.404 131.311 166.855 132.252 159.768 134.885C157.722 135.575 154.434 135.575 154.142 137.833C155.238 138.773 155.384 140.278 156.334 141.595C157.941 143.978 160.864 147.113 163.494 148.743C166.344 150.624 169.267 152.505 172.262 154.136C177.596 156.957 183.66 158.588 188.848 161.409C191.844 163.04 194.912 165.172 197.908 166.927C199.442 167.868 200.392 169.373 202.292 170V169.624C201.342 168.558 201.05 167.053 200.1 165.862C198.712 164.67 197.324 163.604 196.008 162.475C192.063 157.898 187.094 153.885 181.761 150.562C177.377 147.991 167.732 144.417 165.979 140.09C165.979 140.09 165.832 139.965 165.686 139.839C168.682 139.588 172.262 138.648 175.185 137.958C179.861 136.892 184.099 137.143 188.921 136.077C191.113 135.575 193.305 135.011 195.497 134.446V133.381C193.013 131.249 191.259 128.427 188.629 126.42C181.615 121.216 173.943 116.2 165.979 111.936C161.741 109.553 156.261 108.048 151.731 106.041C150.123 105.352 147.347 104.975 146.397 103.784C143.913 101.213 142.525 97.7644 140.771 94.6919C136.826 88.2333 132.953 81.0222 129.519 74.1874C127.035 69.61 125.574 65.0326 122.505 60.7687C108.403 40.7659 92.9866 28.664 69.4596 16.7501C64.4181 14.3046 58.3537 13.2387 51.924 11.9219C48.4899 11.7965 45.0559 11.5456 41.6218 11.4829C39.4299 10.6678 37.2379 8.4104 35.3382 7.34442C27.5203 3.08052 7.35428 -6.07433 1.58214 6.02765C-2.14418 13.6776 7.06202 21.2022 10.2038 25.0898C12.5419 27.7861 15.5376 30.8586 17.2181 33.9312C18.1679 35.9377 18.4602 38.0697 19.41 40.2016C21.602 45.4061 23.6478 51.1749 26.5704 56.0031C28.1048 58.4486 29.7122 61.0822 31.6119 63.2768C32.7079 64.5936 34.6076 65.158 35.0459 67.2899C33.1463 69.6727 33.0001 73.1842 31.9042 76.1313C26.9357 89.4246 28.9085 105.916 35.8497 115.698C38.0416 118.645 43.2293 125.104 50.2435 122.658C56.381 120.526 55.0658 113.817 56.8194 107.923C57.2578 106.48 56.9655 105.54 57.7692 104.599V104.85C59.6689 108.111 61.6417 111.309 63.3952 114.632C67.633 120.401 75.0856 126.42 81.2231 130.371C84.511 132.503 87.1414 136.14 91.233 137.456V137.08H90.9407C90.137 136.014 88.8949 135.575 87.799 134.76C85.3147 132.628 82.6113 130.057 80.6386 127.674C74.8664 121.09 69.8249 113.754 65.2949 106.229C63.103 102.593 61.2033 98.5795 59.3767 94.9426C58.5729 93.5631 58.5729 91.4312 57.1847 90.6788C55.1389 93.2496 52.1432 95.507 50.6088 98.6422C47.9785 103.721 47.7593 109.929 46.7364 116.45C46.2249 116.576 46.4441 116.45 46.2249 116.701C41.841 115.761 40.3066 111.873 38.6992 108.612C34.6076 100.273 33.8769 86.8538 37.4571 77.1973C38.407 74.7518 42.5716 66.9765 40.8912 64.5937C40.0874 62.3363 37.311 61.0822 35.8497 59.2638C34.0961 57.0064 32.1234 54.1847 30.9543 51.7393C27.6664 45.1553 25.9859 37.8188 22.4788 31.2348C20.7983 28.1623 17.9487 24.9644 15.6106 22.1427C12.9803 18.9447 10.1308 16.7501 8.08495 12.9878C7.42737 11.671 6.47753 9.53911 7.50044 8.15962C7.7927 7.21904 8.30414 6.8428 9.40012 6.65469C11.1537 5.33789 16.2682 7.03088 18.0218 7.72064C23.1363 9.47636 27.3741 11.1694 31.6119 13.6149C33.5116 14.8063 35.5574 17.0009 38.0416 17.628H40.9642C45.3481 18.4431 50.3165 17.8788 54.4082 18.9448C61.6416 20.9513 68.2906 23.8984 74.1358 27.0964C92.1098 36.8783 106.942 50.7359 116.952 67.3526C118.632 70.0489 119.29 72.5571 120.824 75.3788C123.674 81.1477 127.254 87.0419 130.177 92.6853C133.026 98.2033 135.803 103.847 139.894 108.487C141.94 110.932 150.197 112.249 153.85 113.566C156.553 114.632 160.864 115.572 163.348 116.827C168.024 119.272 172.701 122.094 177.085 124.853C179.13 126.295 185.998 129.242 186.364 131.562Z"  fill="black" />
<path fill-rule="evenodd" clip-rule="evenodd" d="M46.5171 29.2908C44.1791 29.2908 42.5716 29.5417 40.8911 29.8552V30.106H41.1834C42.2794 31.9871 44.1791 33.3039 45.5673 34.9342C46.6633 36.8154 47.6131 38.6965 48.7091 40.5776C48.8552 40.4522 49.0014 40.3268 49.0014 40.3268C50.9011 39.1354 51.924 37.2543 51.924 34.4326C51.1203 33.6174 50.9741 32.8023 50.2435 31.9871C49.3667 30.7958 47.6131 30.2314 46.5171 29.2908Z"  fill="black" />
</svg>
