<svg width="217" height="172" viewBox="0 0 217 172" fill="none" xmlns="http://www.w3.org/2000/svg">
<path d="M107.092 98.3262C107.092 118.42 104.803 136.575 101.125 149.675C99.2834 156.231 97.1093 161.465 94.7382 165.036C92.3416 168.646 89.9066 170.326 87.5918 170.326C85.277 170.326 82.842 168.646 80.4454 165.036C78.0743 161.465 75.9002 156.231 74.0589 149.675C70.3801 136.575 68.0918 118.42 68.0918 98.3262C68.0918 78.2324 70.3801 60.0776 74.0589 46.9777C75.9002 40.4209 78.0743 35.1872 80.4454 31.616C82.842 28.0063 85.277 26.3262 87.5918 26.3262C89.9066 26.3262 92.3416 28.0063 94.7382 31.616C97.1093 35.1872 99.2834 40.4209 101.125 46.9777C104.803 60.0776 107.092 78.2324 107.092 98.3262Z" stroke="white" stroke-width="2"/>
<path d="M124.17 95.2151C101.231 112.467 79.1077 126.238 61.8958 134.561C53.2823 138.726 45.946 141.504 40.3764 142.686C37.5887 143.277 35.3014 143.456 33.5442 143.242C31.7883 143.028 30.6773 142.439 30.0487 141.603C29.4202 140.767 29.1625 139.536 29.4439 137.79C29.7255 136.042 30.532 133.894 31.8738 131.38C34.5546 126.357 39.2583 120.079 45.6496 112.96C58.4211 98.7325 77.7895 81.2985 100.729 64.0462C123.668 46.7939 145.792 33.0228 163.004 24.7C171.617 20.535 178.953 17.7577 184.523 16.5757C187.311 15.9841 189.598 15.8052 191.355 16.0195C193.111 16.2336 194.222 16.8228 194.851 17.6585C195.479 18.4943 195.737 19.7251 195.456 21.4715C195.174 23.2191 194.367 25.367 193.026 27.8812C190.345 32.9042 185.641 39.1819 179.25 46.3017C166.478 60.5287 147.11 77.9628 124.17 95.2151Z" stroke="white" stroke-width="2"/>
<path d="M122.072 64.0261C148.077 76.1059 170.021 90.3895 184.479 103.69C191.713 110.345 197.03 116.714 200.06 122.399C203.099 128.103 203.748 132.935 202.008 136.68C200.269 140.425 196.158 143.047 189.839 144.403C183.54 145.755 175.244 145.8 165.492 144.565C146.002 142.096 120.933 134.541 94.928 122.461C68.9232 110.381 46.9796 96.0977 32.5209 82.7967C25.2871 76.1421 19.9703 69.773 16.9404 64.0879C13.9008 58.3844 13.2525 53.5521 14.9921 49.8072C16.7317 46.0623 20.8424 43.4406 27.1615 42.0844C33.4601 40.7326 41.7567 40.6872 51.5078 41.9224C70.9982 44.3915 96.0674 51.9464 122.072 64.0261Z" stroke="white" stroke-width="2"/>
<path d="M91.1632 95.8262C91.1632 98.9348 88.8402 101.326 86.1275 101.326C83.4149 101.326 81.0918 98.9348 81.0918 95.8262C81.0918 92.7175 83.4149 90.3262 86.1275 90.3262C88.8402 90.3262 91.1632 92.7175 91.1632 95.8262Z" stroke="white" stroke-width="2"/>
</svg>
