<svg width="107" height="83" viewBox="0 0 107 83" fill="none" xmlns="http://www.w3.org/2000/svg">
<path d="M2.46924 47.1571C2.46924 47.1571 29.4162 13.4735 33.4582 12.7998C37.5002 12.1261 62.9314 25.5837 65.1208 23.739C67.3103 21.8944 106.215 0 106.215 0C106.215 0 71.5207 45.4729 67.3103 47.1571C63.0998 48.8413 50.2256 34.5911 37.5002 33.868C22.8921 33.0378 2.46924 47.1571 2.46924 47.1571Z" fill="white"/>
<path d="M0.785156 82.8618C0.785156 82.8618 27.7321 49.1781 31.7741 48.5044C35.8162 47.8308 61.2473 61.2883 63.4367 59.4437C65.6262 57.599 104.531 35.7047 104.531 35.7047C104.531 35.7047 69.8366 81.1776 65.6262 82.8618C61.4157 84.5459 48.5416 70.2958 35.8162 69.5726C21.208 68.7424 0.785156 82.8618 0.785156 82.8618Z" fill="white"/>
</svg>
