<svg width="295" height="" viewBox="0 0 295 204" fill="none" xmlns="http://www.w3.org/2000/svg">
<rect x="1" y="1" width="66" height="42.0741" rx="21.037"  stroke="black" stroke-width="2"/>
<circle cx="24" cy="22.037" r="17"  fill="black" />
<rect x="96" y="1" width="183" height="42.0741" rx="21.037"  stroke="black" stroke-width="2"/>
<mask id="path-4-inside-1_66_357"  fill="black" >
<path d="M105 14.537H147V29.537H105V14.537Z"/>
</mask>
<path d="M146 14.537V29.537H148V14.537H146Z"  fill="black" mask="url(#path-4-inside-1_66_357)"/>
<mask id="path-6-outside-2_66_357" maskUnits="userSpaceOnUse" x="109" y="14.537" width="36" height="17" fill="black">
<rect  fill="black" x="109" y="14.537" width="36" height="17"/>
<path d="M114.583 26.633C113.975 26.633 113.427 26.497 112.939 26.225C112.451 25.945 112.063 25.557 111.775 25.061C111.495 24.565 111.355 23.981 111.355 23.309C111.355 22.629 111.495 22.041 111.775 21.545C112.063 21.049 112.451 20.665 112.939 20.393C113.427 20.121 113.975 19.985 114.583 19.985C115.127 19.985 115.603 20.105 116.011 20.345C116.419 20.585 116.735 20.949 116.959 21.437C117.183 21.925 117.295 22.549 117.295 23.309C117.295 24.061 117.187 24.685 116.971 25.181C116.755 25.669 116.443 26.033 116.035 26.273C115.635 26.513 115.151 26.633 114.583 26.633ZM114.907 25.097C115.211 25.097 115.487 25.025 115.735 24.881C115.983 24.737 116.179 24.533 116.323 24.269C116.475 23.997 116.551 23.677 116.551 23.309C116.551 22.933 116.475 22.613 116.323 22.349C116.179 22.085 115.983 21.881 115.735 21.737C115.487 21.593 115.211 21.521 114.907 21.521C114.595 21.521 114.315 21.593 114.067 21.737C113.819 21.881 113.619 22.085 113.467 22.349C113.323 22.613 113.251 22.933 113.251 23.309C113.251 23.677 113.323 23.997 113.467 24.269C113.619 24.533 113.819 24.737 114.067 24.881C114.315 25.025 114.595 25.097 114.907 25.097ZM116.599 26.537V25.217L116.635 23.297L116.515 21.389V17.633H118.387V26.537H116.599ZM124.08 26.537V25.277L123.96 25.001V22.745C123.96 22.345 123.836 22.033 123.588 21.809C123.348 21.585 122.976 21.473 122.472 21.473C122.128 21.473 121.788 21.529 121.452 21.641C121.124 21.745 120.844 21.889 120.612 22.073L119.94 20.765C120.292 20.517 120.716 20.325 121.212 20.189C121.708 20.053 122.212 19.985 122.724 19.985C123.708 19.985 124.472 20.217 125.016 20.681C125.56 21.145 125.832 21.869 125.832 22.853V26.537H124.08ZM122.112 26.633C121.608 26.633 121.176 26.549 120.816 26.381C120.456 26.205 120.18 25.969 119.988 25.673C119.796 25.377 119.7 25.045 119.7 24.677C119.7 24.293 119.792 23.957 119.976 23.669C120.168 23.381 120.468 23.157 120.876 22.997C121.284 22.829 121.816 22.745 122.472 22.745H124.188V23.837H122.676C122.236 23.837 121.932 23.909 121.764 24.053C121.604 24.197 121.524 24.377 121.524 24.593C121.524 24.833 121.616 25.025 121.8 25.169C121.992 25.305 122.252 25.373 122.58 25.373C122.892 25.373 123.172 25.301 123.42 25.157C123.668 25.005 123.848 24.785 123.96 24.497L124.248 25.361C124.112 25.777 123.864 26.093 123.504 26.309C123.144 26.525 122.68 26.633 122.112 26.633ZM127.526 26.537V20.081H129.398V26.537H127.526ZM128.462 19.181C128.118 19.181 127.838 19.081 127.622 18.881C127.406 18.681 127.298 18.433 127.298 18.137C127.298 17.841 127.406 17.593 127.622 17.393C127.838 17.193 128.118 17.093 128.462 17.093C128.806 17.093 129.086 17.189 129.302 17.381C129.518 17.565 129.626 17.805 129.626 18.101C129.626 18.413 129.518 18.673 129.302 18.881C129.094 19.081 128.814 19.181 128.462 19.181ZM131.135 26.537V17.633H133.007V26.537H131.135ZM135.561 28.961C135.225 28.961 134.893 28.909 134.565 28.805C134.237 28.701 133.969 28.557 133.761 28.373L134.445 27.041C134.589 27.169 134.753 27.269 134.937 27.341C135.129 27.413 135.317 27.449 135.501 27.449C135.765 27.449 135.973 27.385 136.125 27.257C136.285 27.137 136.429 26.933 136.557 26.645L136.893 25.853L137.037 25.649L139.353 20.081H141.153L138.237 26.933C138.029 27.453 137.789 27.861 137.517 28.157C137.253 28.453 136.957 28.661 136.629 28.781C136.309 28.901 135.953 28.961 135.561 28.961ZM136.665 26.789L133.785 20.081H135.717L137.949 25.481L136.665 26.789Z"/>
</mask>
<path d="M114.583 26.633C113.975 26.633 113.427 26.497 112.939 26.225C112.451 25.945 112.063 25.557 111.775 25.061C111.495 24.565 111.355 23.981 111.355 23.309C111.355 22.629 111.495 22.041 111.775 21.545C112.063 21.049 112.451 20.665 112.939 20.393C113.427 20.121 113.975 19.985 114.583 19.985C115.127 19.985 115.603 20.105 116.011 20.345C116.419 20.585 116.735 20.949 116.959 21.437C117.183 21.925 117.295 22.549 117.295 23.309C117.295 24.061 117.187 24.685 116.971 25.181C116.755 25.669 116.443 26.033 116.035 26.273C115.635 26.513 115.151 26.633 114.583 26.633ZM114.907 25.097C115.211 25.097 115.487 25.025 115.735 24.881C115.983 24.737 116.179 24.533 116.323 24.269C116.475 23.997 116.551 23.677 116.551 23.309C116.551 22.933 116.475 22.613 116.323 22.349C116.179 22.085 115.983 21.881 115.735 21.737C115.487 21.593 115.211 21.521 114.907 21.521C114.595 21.521 114.315 21.593 114.067 21.737C113.819 21.881 113.619 22.085 113.467 22.349C113.323 22.613 113.251 22.933 113.251 23.309C113.251 23.677 113.323 23.997 113.467 24.269C113.619 24.533 113.819 24.737 114.067 24.881C114.315 25.025 114.595 25.097 114.907 25.097ZM116.599 26.537V25.217L116.635 23.297L116.515 21.389V17.633H118.387V26.537H116.599ZM124.08 26.537V25.277L123.96 25.001V22.745C123.96 22.345 123.836 22.033 123.588 21.809C123.348 21.585 122.976 21.473 122.472 21.473C122.128 21.473 121.788 21.529 121.452 21.641C121.124 21.745 120.844 21.889 120.612 22.073L119.94 20.765C120.292 20.517 120.716 20.325 121.212 20.189C121.708 20.053 122.212 19.985 122.724 19.985C123.708 19.985 124.472 20.217 125.016 20.681C125.56 21.145 125.832 21.869 125.832 22.853V26.537H124.08ZM122.112 26.633C121.608 26.633 121.176 26.549 120.816 26.381C120.456 26.205 120.18 25.969 119.988 25.673C119.796 25.377 119.7 25.045 119.7 24.677C119.7 24.293 119.792 23.957 119.976 23.669C120.168 23.381 120.468 23.157 120.876 22.997C121.284 22.829 121.816 22.745 122.472 22.745H124.188V23.837H122.676C122.236 23.837 121.932 23.909 121.764 24.053C121.604 24.197 121.524 24.377 121.524 24.593C121.524 24.833 121.616 25.025 121.8 25.169C121.992 25.305 122.252 25.373 122.58 25.373C122.892 25.373 123.172 25.301 123.42 25.157C123.668 25.005 123.848 24.785 123.96 24.497L124.248 25.361C124.112 25.777 123.864 26.093 123.504 26.309C123.144 26.525 122.68 26.633 122.112 26.633ZM127.526 26.537V20.081H129.398V26.537H127.526ZM128.462 19.181C128.118 19.181 127.838 19.081 127.622 18.881C127.406 18.681 127.298 18.433 127.298 18.137C127.298 17.841 127.406 17.593 127.622 17.393C127.838 17.193 128.118 17.093 128.462 17.093C128.806 17.093 129.086 17.189 129.302 17.381C129.518 17.565 129.626 17.805 129.626 18.101C129.626 18.413 129.518 18.673 129.302 18.881C129.094 19.081 128.814 19.181 128.462 19.181ZM131.135 26.537V17.633H133.007V26.537H131.135ZM135.561 28.961C135.225 28.961 134.893 28.909 134.565 28.805C134.237 28.701 133.969 28.557 133.761 28.373L134.445 27.041C134.589 27.169 134.753 27.269 134.937 27.341C135.129 27.413 135.317 27.449 135.501 27.449C135.765 27.449 135.973 27.385 136.125 27.257C136.285 27.137 136.429 26.933 136.557 26.645L136.893 25.853L137.037 25.649L139.353 20.081H141.153L138.237 26.933C138.029 27.453 137.789 27.861 137.517 28.157C137.253 28.453 136.957 28.661 136.629 28.781C136.309 28.901 135.953 28.961 135.561 28.961ZM136.665 26.789L133.785 20.081H135.717L137.949 25.481L136.665 26.789Z"  fill="black" />
<path d="M112.939 26.225L111.944 27.9598L111.955 27.966L111.966 27.972L112.939 26.225ZM111.775 25.061L110.034 26.0442L110.04 26.0548L110.046 26.0653L111.775 25.061ZM111.775 21.545L110.046 20.5408L110.04 20.5513L110.034 20.5619L111.775 21.545ZM112.939 20.393L111.966 18.6461L111.966 18.6461L112.939 20.393ZM116.011 20.345L117.025 18.6212V18.6212L116.011 20.345ZM116.959 21.437L118.777 20.6027L116.959 21.437ZM116.971 25.181L118.8 25.9906L118.805 25.9796L116.971 25.181ZM116.035 26.273L115.021 24.5492L115.014 24.5536L115.006 24.5581L116.035 26.273ZM115.735 24.881L114.731 23.1515H114.731L115.735 24.881ZM116.323 24.269L114.577 23.2934L114.572 23.3023L114.567 23.3113L116.323 24.269ZM116.323 22.349L114.567 23.3068L114.579 23.327L114.59 23.347L116.323 22.349ZM115.735 21.737L114.731 23.4666H114.731L115.735 21.737ZM114.067 21.737L115.072 23.4666L115.072 23.4666L114.067 21.737ZM113.467 22.349L111.734 21.3511L111.723 21.3711L111.711 21.3913L113.467 22.349ZM113.467 24.269L111.7 25.2048L111.716 25.2362L111.734 25.267L113.467 24.269ZM114.067 24.881L115.072 23.1515H115.072L114.067 24.881ZM116.599 26.537H114.599V28.537H116.599V26.537ZM116.599 25.217L114.6 25.1796L114.599 25.1983V25.217H116.599ZM116.635 23.297L118.635 23.3345L118.636 23.253L118.631 23.1715L116.635 23.297ZM116.515 21.389H114.515V21.4519L114.519 21.5146L116.515 21.389ZM116.515 17.633V15.633H114.515V17.633H116.515ZM118.387 17.633H120.387V15.633H118.387V17.633ZM118.387 26.537V28.537H120.387V26.537H118.387ZM114.583 24.633C114.285 24.633 114.077 24.5697 113.913 24.4781L111.966 27.972C112.777 28.4244 113.665 28.633 114.583 28.633V24.633ZM113.935 24.4903C113.757 24.3886 113.62 24.2552 113.505 24.0568L110.046 26.0653C110.506 26.8589 111.145 27.5015 111.944 27.9598L113.935 24.4903ZM113.517 24.0779C113.434 23.9318 113.355 23.6988 113.355 23.309H109.355C109.355 24.2633 109.556 25.1983 110.034 26.0442L113.517 24.0779ZM113.355 23.309C113.355 22.9067 113.436 22.671 113.517 22.5282L110.034 20.5619C109.554 21.4111 109.355 22.3514 109.355 23.309H113.355ZM113.505 22.5493C113.617 22.3557 113.748 22.2321 113.913 22.14L111.966 18.6461C111.155 19.098 110.509 19.7424 110.046 20.5408L113.505 22.5493ZM113.913 22.14C114.077 22.0484 114.285 21.985 114.583 21.985V17.985C113.665 17.985 112.777 18.1937 111.966 18.6461L113.913 22.14ZM114.583 21.985C114.825 21.985 114.94 22.0353 114.997 22.0689L117.025 18.6212C116.266 18.1748 115.43 17.985 114.583 17.985V21.985ZM114.997 22.0689C115.007 22.0744 115.064 22.1033 115.142 22.2714L118.777 20.6027C118.406 19.7948 117.832 19.0957 117.025 18.6212L114.997 22.0689ZM115.142 22.2714C115.206 22.4125 115.295 22.7257 115.295 23.309H119.295C119.295 22.3724 119.16 21.4376 118.777 20.6027L115.142 22.2714ZM115.295 23.309C115.295 23.8864 115.21 24.2164 115.138 24.3825L118.805 25.9796C119.165 25.1537 119.295 24.2357 119.295 23.309H115.295ZM115.142 24.3716C115.073 24.5279 115.024 24.5478 115.021 24.5492L117.049 27.9969C117.863 27.5183 118.437 26.8102 118.8 25.9905L115.142 24.3716ZM115.006 24.5581C114.978 24.5748 114.868 24.633 114.583 24.633V28.633C115.435 28.633 116.292 28.4513 117.064 27.988L115.006 24.5581ZM114.907 27.097C115.542 27.097 116.168 26.9425 116.74 26.6106L114.731 23.1515C114.763 23.1331 114.799 23.1177 114.837 23.1078C114.875 23.0981 114.9 23.097 114.907 23.097V27.097ZM116.74 26.6106C117.32 26.2738 117.769 25.7956 118.079 25.2268L114.567 23.3113C114.575 23.2972 114.593 23.2683 114.626 23.2344C114.659 23.2 114.696 23.1718 114.731 23.1515L116.74 26.6106ZM118.069 25.2447C118.416 24.6247 118.551 23.9566 118.551 23.309H114.551C114.551 23.3556 114.546 23.371 114.548 23.3629C114.549 23.3589 114.552 23.3499 114.557 23.3372C114.562 23.3245 114.568 23.3095 114.577 23.2934L118.069 25.2447ZM118.551 23.309C118.551 22.6642 118.42 21.9822 118.057 21.3511L114.59 23.347C114.577 23.3237 114.567 23.3025 114.56 23.2849C114.553 23.2674 114.55 23.255 114.548 23.2492C114.546 23.238 114.551 23.255 114.551 23.309H118.551ZM118.079 21.3913C117.769 20.8225 117.32 20.3443 116.74 20.0075L114.731 23.4666C114.696 23.4463 114.659 23.4181 114.626 23.3837C114.593 23.3498 114.575 23.3209 114.567 23.3068L118.079 21.3913ZM116.74 20.0075C116.168 19.6756 115.542 19.521 114.907 19.521V23.521C114.9 23.521 114.875 23.52 114.837 23.5103C114.799 23.5004 114.763 23.4849 114.731 23.4666L116.74 20.0075ZM114.907 19.521C114.275 19.521 113.643 19.6709 113.063 20.0075L115.072 23.4666C115.036 23.4874 114.997 23.5028 114.961 23.512C114.926 23.521 114.906 23.521 114.907 23.521V19.521ZM113.063 20.0075C112.493 20.3383 112.049 20.8032 111.734 21.3511L115.201 23.347C115.198 23.3517 115.185 23.3718 115.159 23.3982C115.133 23.425 115.102 23.4487 115.072 23.4666L113.063 20.0075ZM111.711 21.3913C111.372 22.0138 111.251 22.6808 111.251 23.309H115.251C115.251 23.2477 115.257 23.2228 115.256 23.2261C115.256 23.228 115.254 23.2369 115.249 23.2513C115.243 23.2659 115.235 23.2849 115.223 23.3068L111.711 21.3913ZM111.251 23.309C111.251 23.9397 111.376 24.5932 111.7 25.2048L115.235 23.3333C115.243 23.3479 115.248 23.3607 115.252 23.3705C115.255 23.3803 115.256 23.3858 115.256 23.386C115.257 23.3863 115.251 23.363 115.251 23.309H111.251ZM111.734 25.267C112.049 25.8149 112.493 26.2798 113.063 26.6106L115.072 23.1515C115.102 23.1694 115.133 23.193 115.159 23.2199C115.185 23.2463 115.198 23.2664 115.201 23.2711L111.734 25.267ZM113.063 26.6106C113.643 26.9472 114.275 27.097 114.907 27.097V23.097C114.906 23.097 114.926 23.0971 114.961 23.1061C114.997 23.1153 115.036 23.1307 115.072 23.1515L113.063 26.6106ZM118.599 26.537V25.217H114.599V26.537H118.599ZM118.599 25.2545L118.635 23.3345L114.636 23.2596L114.6 25.1796L118.599 25.2545ZM118.631 23.1715L118.511 21.2635L114.519 21.5146L114.639 23.4226L118.631 23.1715ZM118.515 21.389V17.633H114.515V21.389H118.515ZM116.515 19.633H118.387V15.633H116.515V19.633ZM116.387 17.633V26.537H120.387V17.633H116.387ZM118.387 24.537H116.599V28.537H118.387V24.537ZM124.08 26.537H122.08V28.537H124.08V26.537ZM124.08 25.277H126.08V24.8611L125.914 24.4796L124.08 25.277ZM123.96 25.001H121.96V25.417L122.126 25.7985L123.96 25.001ZM123.588 21.809L122.223 23.2712L122.235 23.2823L122.247 23.2933L123.588 21.809ZM121.452 21.641L122.056 23.5475L122.07 23.5431L122.084 23.5384L121.452 21.641ZM120.612 22.073L118.833 22.987L119.946 25.1537L121.855 23.64L120.612 22.073ZM119.94 20.765L118.788 19.1301L117.366 20.1319L118.161 21.679L119.94 20.765ZM121.212 20.189L120.683 18.2602L120.683 18.2602L121.212 20.189ZM125.016 20.681L126.314 19.1594L125.016 20.681ZM125.832 26.537V28.537H127.832V26.537H125.832ZM120.816 26.381L119.937 28.1778L119.954 28.1858L119.97 28.1934L120.816 26.381ZM119.988 25.673L121.666 24.5847H121.666L119.988 25.673ZM119.976 23.669L118.312 22.5596L118.301 22.5759L118.29 22.5923L119.976 23.669ZM120.876 22.997L121.606 24.859L121.622 24.8528L121.637 24.8464L120.876 22.997ZM124.188 22.745H126.188V20.745H124.188V22.745ZM124.188 23.837V25.837H126.188V23.837H124.188ZM121.764 24.053L120.462 22.5345L120.444 22.5503L120.426 22.5665L121.764 24.053ZM121.8 25.169L120.567 26.7441L120.605 26.7735L120.644 26.8011L121.8 25.169ZM123.42 25.157L124.424 26.8866L124.445 26.8747L124.465 26.8623L123.42 25.157ZM123.96 24.497L125.857 23.8646L124.105 18.6068L122.096 23.7722L123.96 24.497ZM124.248 25.361L126.149 25.9825L126.354 25.355L126.145 24.7286L124.248 25.361ZM123.504 26.309L122.475 24.5941H122.475L123.504 26.309ZM126.08 26.537V25.277H122.08V26.537H126.08ZM125.914 24.4796L125.794 24.2036L122.126 25.7985L122.246 26.0745L125.914 24.4796ZM125.96 25.001V22.745H121.96V25.001H125.96ZM125.96 22.745C125.96 21.9006 125.679 21.0024 124.928 20.3248L122.247 23.2933C122.143 23.1987 122.059 23.0773 122.008 22.9497C121.961 22.8303 121.96 22.7506 121.96 22.745H125.96ZM124.952 20.3469C124.187 19.6322 123.22 19.473 122.472 19.473V23.473C122.583 23.473 122.599 23.4863 122.552 23.4721C122.498 23.4557 122.365 23.4037 122.223 23.2712L124.952 20.3469ZM122.472 19.473C121.907 19.473 121.353 19.5657 120.819 19.7437L122.084 23.5384C122.222 23.4924 122.349 23.473 122.472 23.473V19.473ZM120.847 19.7346C120.325 19.9003 119.82 20.1487 119.369 20.5061L121.855 23.64C121.868 23.6294 121.923 23.5898 122.056 23.5475L120.847 19.7346ZM122.391 21.1591L121.719 19.8511L118.161 21.679L118.833 22.987L122.391 21.1591ZM121.092 22.4C121.222 22.3083 121.426 22.2043 121.741 22.1179L120.683 18.2602C120.006 18.4458 119.362 18.7258 118.788 19.1301L121.092 22.4ZM121.741 22.1179C122.065 22.0289 122.391 21.985 122.724 21.985V17.985C122.032 17.985 121.351 18.0772 120.683 18.2602L121.741 22.1179ZM122.724 21.985C123.411 21.985 123.652 22.1464 123.718 22.2027L126.314 19.1594C125.292 18.2877 124.005 17.985 122.724 17.985V21.985ZM123.718 22.2027C123.719 22.204 123.721 22.2051 123.724 22.2101C123.728 22.2159 123.74 22.2349 123.756 22.2754C123.788 22.3606 123.832 22.5388 123.832 22.853H127.832C127.832 21.5144 127.453 20.1312 126.314 19.1594L123.718 22.2027ZM123.832 22.853V26.537H127.832V22.853H123.832ZM125.832 24.537H124.08V28.537H125.832V24.537ZM122.112 24.633C121.824 24.633 121.696 24.5846 121.662 24.5687L119.97 28.1934C120.656 28.5135 121.392 28.633 122.112 28.633V24.633ZM121.694 24.5843C121.65 24.5628 121.636 24.5497 121.639 24.552C121.64 24.5529 121.644 24.5565 121.649 24.5628C121.655 24.5691 121.661 24.5766 121.666 24.5847L118.31 26.7614C118.725 27.4013 119.297 27.8646 119.937 28.1778L121.694 24.5843ZM121.666 24.5847C121.674 24.5979 121.685 24.62 121.693 24.6465C121.701 24.6724 121.7 24.6853 121.7 24.677H117.7C117.7 25.4138 117.898 26.127 118.31 26.7614L121.666 24.5847ZM121.7 24.677C121.7 24.6455 121.704 24.6446 121.698 24.6652C121.695 24.6752 121.691 24.6882 121.684 24.7031C121.678 24.718 121.67 24.7325 121.661 24.7458L118.29 22.5923C117.876 23.2405 117.7 23.9601 117.7 24.677H121.7ZM121.64 24.7784C121.621 24.8075 121.601 24.8316 121.582 24.8508C121.564 24.8698 121.549 24.8817 121.541 24.8876C121.526 24.8989 121.541 24.8846 121.606 24.859L120.146 21.1351C119.458 21.4046 118.785 21.8504 118.312 22.5596L121.64 24.7784ZM121.637 24.8464C121.716 24.814 121.962 24.745 122.472 24.745V20.745C121.67 20.745 120.852 20.8441 120.114 21.1477L121.637 24.8464ZM122.472 24.745H124.188V20.745H122.472V24.745ZM122.188 22.745V23.837H126.188V22.745H122.188ZM124.188 21.837H122.676V25.837H124.188V21.837ZM122.676 21.837C122.161 21.837 121.212 21.8921 120.462 22.5345L123.065 25.5716C122.828 25.7747 122.617 25.8281 122.579 25.8372C122.532 25.8482 122.553 25.837 122.676 25.837V21.837ZM120.426 22.5665C119.843 23.0912 119.524 23.8123 119.524 24.593H123.524C123.524 24.7376 123.496 24.9188 123.411 25.1083C123.327 25.298 123.211 25.4414 123.102 25.5396L120.426 22.5665ZM119.524 24.593C119.524 25.4286 119.884 26.2091 120.567 26.7441L123.032 23.594C123.159 23.6931 123.297 23.8448 123.396 24.0528C123.495 24.2591 123.524 24.4522 123.524 24.593H119.524ZM120.644 26.8011C121.283 27.2541 121.996 27.373 122.58 27.373V23.373C122.508 23.373 122.7 23.356 122.956 23.537L120.644 26.8011ZM122.58 27.373C123.213 27.373 123.845 27.2232 124.424 26.8866L122.416 23.4275C122.451 23.4067 122.49 23.3913 122.526 23.3821C122.561 23.3731 122.581 23.373 122.58 23.373V27.373ZM124.465 26.8623C125.11 26.467 125.564 25.8903 125.824 25.2219L122.096 23.7722C122.109 23.7371 122.139 23.6779 122.193 23.6116C122.248 23.5442 122.312 23.4901 122.375 23.4518L124.465 26.8623ZM122.062 25.1295L122.35 25.9935L126.145 24.7286L125.857 23.8646L122.062 25.1295ZM122.347 24.7396C122.345 24.7455 122.354 24.7168 122.387 24.6753C122.42 24.6328 122.455 24.6058 122.475 24.5941L124.533 28.024C125.324 27.5491 125.87 26.8349 126.149 25.9825L122.347 24.7396ZM122.475 24.5941C122.517 24.5689 122.441 24.633 122.112 24.633V28.633C122.919 28.633 123.771 28.4812 124.533 28.024L122.475 24.5941ZM127.526 26.537H125.526V28.537H127.526V26.537ZM127.526 20.081V18.081H125.526V20.081H127.526ZM129.398 20.081H131.398V18.081H129.398V20.081ZM129.398 26.537V28.537H131.398V26.537H129.398ZM127.622 18.881L126.263 20.3486L126.263 20.3486L127.622 18.881ZM127.622 17.393L128.981 18.8606L128.981 18.8606L127.622 17.393ZM129.302 17.381L127.973 18.8759L127.989 18.8899L128.005 18.9035L129.302 17.381ZM129.302 18.881L130.688 20.3227L130.689 20.3217L129.302 18.881ZM129.526 26.537V20.081H125.526V26.537H129.526ZM127.526 22.081H129.398V18.081H127.526V22.081ZM127.398 20.081V26.537H131.398V20.081H127.398ZM129.398 24.537H127.526V28.537H129.398V24.537ZM128.462 17.181C128.484 17.181 128.56 17.1844 128.667 17.2226C128.779 17.2625 128.889 17.3281 128.981 17.4135L126.263 20.3486C126.91 20.9478 127.705 21.181 128.462 21.181V17.181ZM128.981 17.4135C129.058 17.4846 129.147 17.5954 129.213 17.7465C129.278 17.8973 129.298 18.0364 129.298 18.137H125.298C125.298 18.9867 125.636 19.7677 126.263 20.3486L128.981 17.4135ZM129.298 18.137C129.298 18.2377 129.278 18.3768 129.213 18.5276C129.147 18.6787 129.058 18.7895 128.981 18.8606L126.263 15.9255C125.636 16.5064 125.298 17.2874 125.298 18.137H129.298ZM128.981 18.8606C128.889 18.946 128.779 19.0116 128.667 19.0515C128.56 19.0897 128.484 19.093 128.462 19.093V15.093C127.705 15.093 126.91 15.3263 126.263 15.9255L128.981 18.8606ZM128.462 19.093C128.448 19.093 128.381 19.0911 128.281 19.0569C128.177 19.0211 128.068 18.9603 127.973 18.8759L130.631 15.8862C129.981 15.3089 129.198 15.093 128.462 15.093V19.093ZM128.005 18.9035C127.906 18.8188 127.798 18.6905 127.721 18.5198C127.645 18.3513 127.626 18.2006 127.626 18.101H131.626C131.626 17.248 131.283 16.4409 130.599 15.8586L128.005 18.9035ZM127.626 18.101C127.626 18.0223 127.641 17.901 127.698 17.7628C127.756 17.6229 127.838 17.5143 127.915 17.4404L130.689 20.3217C131.314 19.7199 131.626 18.9319 131.626 18.101H127.626ZM127.916 17.4394C128.022 17.3373 128.145 17.2647 128.263 17.2226C128.375 17.1827 128.45 17.181 128.462 17.181V21.181C129.211 21.181 130.029 20.9564 130.688 20.3227L127.916 17.4394ZM131.135 26.537H129.135V28.537H131.135V26.537ZM131.135 17.633V15.633H129.135V17.633H131.135ZM133.007 17.633H135.007V15.633H133.007V17.633ZM133.007 26.537V28.537H135.007V26.537H133.007ZM133.135 26.537V17.633H129.135V26.537H133.135ZM131.135 19.633H133.007V15.633H131.135V19.633ZM131.007 17.633V26.537H135.007V17.633H131.007ZM133.007 24.537H131.135V28.537H133.007V24.537ZM134.565 28.805L135.169 26.8986L134.565 28.805ZM133.761 28.373L131.982 27.4594L131.272 28.8416L132.436 29.871L133.761 28.373ZM134.445 27.041L135.774 25.5462L133.845 23.8316L132.666 26.1274L134.445 27.041ZM134.937 27.341L134.208 29.2035L134.221 29.2087L134.235 29.2137L134.937 27.341ZM136.125 27.257L134.925 25.657L134.88 25.6909L134.837 25.7272L136.125 27.257ZM136.557 26.645L138.384 27.4573L138.391 27.4418L138.398 27.4261L136.557 26.645ZM136.893 25.853L135.259 24.6997L135.135 24.8747L135.052 25.0719L136.893 25.853ZM137.037 25.649L138.671 26.8024L138.798 26.6216L138.883 26.4171L137.037 25.649ZM139.353 20.081V18.081H138.019L137.506 19.3129L139.353 20.081ZM141.153 20.081L142.993 20.8642L144.178 18.081H141.153V20.081ZM138.237 26.933L136.397 26.1499L136.388 26.17L136.38 26.1903L138.237 26.933ZM137.517 28.157L136.044 26.8038L136.034 26.8147L136.024 26.8258L137.517 28.157ZM136.629 28.781L135.942 26.9028L135.934 26.9056L135.927 26.9084L136.629 28.781ZM136.665 26.789L134.827 27.5781L136.003 30.3179L138.092 28.1901L136.665 26.789ZM133.785 20.081V18.081H130.75L131.947 20.8701L133.785 20.081ZM135.717 20.081L137.565 19.3171L137.054 18.081H135.717V20.081ZM137.949 25.481L139.376 26.8821L140.302 25.9388L139.797 24.7171L137.949 25.481ZM135.561 26.961C135.435 26.961 135.307 26.9421 135.169 26.8986L133.96 30.7115C134.479 30.876 135.015 30.961 135.561 30.961V26.961ZM135.169 26.8986C135.046 26.8594 135.041 26.8355 135.086 26.8751L132.436 29.871C132.896 30.2786 133.428 30.5427 133.96 30.7115L135.169 26.8986ZM135.54 29.2867L136.224 27.9547L132.666 26.1274L131.982 27.4594L135.54 29.2867ZM133.116 28.5359C133.441 28.8249 133.81 29.0476 134.208 29.2035L135.666 25.4786C135.679 25.4838 135.697 25.4921 135.717 25.5045C135.737 25.5168 135.757 25.5311 135.774 25.5462L133.116 28.5359ZM134.235 29.2137C134.626 29.3603 135.051 29.449 135.501 29.449V25.449C135.583 25.449 135.632 25.4658 135.639 25.4684L134.235 29.2137ZM135.501 29.449C136.08 29.449 136.797 29.3059 137.413 28.7869L134.837 25.7272C135.149 25.4642 135.45 25.449 135.501 25.449V29.449ZM137.325 28.857C137.872 28.447 138.19 27.8946 138.384 27.4573L134.729 25.8328C134.705 25.8866 134.699 25.8893 134.719 25.8607C134.739 25.8326 134.802 25.749 134.925 25.657L137.325 28.857ZM138.398 27.4261L138.734 26.6341L135.052 25.0719L134.716 25.8639L138.398 27.4261ZM138.527 27.0064L138.671 26.8024L135.403 24.4957L135.259 24.6997L138.527 27.0064ZM138.883 26.4171L141.199 20.8491L137.506 19.3129L135.19 24.8809L138.883 26.4171ZM139.353 22.081H141.153V18.081H139.353V22.081ZM139.313 19.2979L136.397 26.1499L140.077 27.7162L142.993 20.8642L139.313 19.2979ZM136.38 26.1903C136.229 26.5672 136.101 26.7415 136.044 26.8038L138.99 29.5103C139.476 28.9806 139.829 28.3389 140.094 27.6758L136.38 26.1903ZM136.024 26.8258C135.985 26.8702 135.958 26.8909 135.947 26.8987C135.937 26.9058 135.936 26.905 135.942 26.9028L137.316 30.6593C137.993 30.4115 138.556 29.9964 139.009 29.4883L136.024 26.8258ZM135.927 26.9084C135.862 26.9328 135.748 26.961 135.561 26.961V30.961C136.158 30.961 136.756 30.8693 137.331 30.6537L135.927 26.9084ZM138.503 26L135.623 19.292L131.947 20.8701L134.827 27.5781L138.503 26ZM133.785 22.081H135.717V18.081H133.785V22.081ZM133.869 20.845L136.101 26.245L139.797 24.7171L137.565 19.3171L133.869 20.845ZM136.522 24.08L135.238 25.388L138.092 28.1901L139.376 26.8821L136.522 24.08Z" fill="black" mask="url(#path-6-outside-2_66_357)"/>
<mask id="path-8-inside-3_66_357"  fill="black" >
<path d="M147 14.537H208.5V29.537H147V14.537Z"/>
</mask>
<path d="M206.5 14.537V29.537H210.5V14.537H206.5Z"  fill="black" mask="url(#path-8-inside-3_66_357)"/>
<path d="M157.637 26.537L155.309 20.081H157.073L159.005 25.637H158.165L160.181 20.081H161.765L163.721 25.637H162.881L164.873 20.081H166.529L164.189 26.537H162.377L160.661 21.773H161.213L159.437 26.537H157.637ZM170.427 26.633C169.691 26.633 169.043 26.489 168.483 26.201C167.931 25.913 167.503 25.521 167.199 25.025C166.895 24.521 166.743 23.949 166.743 23.309C166.743 22.661 166.891 22.089 167.187 21.593C167.491 21.089 167.903 20.697 168.423 20.417C168.943 20.129 169.531 19.985 170.187 19.985C170.819 19.985 171.387 20.121 171.891 20.393C172.403 20.657 172.807 21.041 173.103 21.545C173.399 22.041 173.547 22.637 173.547 23.333C173.547 23.405 173.543 23.489 173.535 23.585C173.527 23.673 173.519 23.757 173.511 23.837H168.267V22.745H172.527L171.807 23.069C171.807 22.733 171.739 22.441 171.603 22.193C171.467 21.945 171.279 21.753 171.039 21.617C170.799 21.473 170.519 21.401 170.199 21.401C169.879 21.401 169.595 21.473 169.347 21.617C169.107 21.753 168.919 21.949 168.783 22.205C168.647 22.453 168.579 22.749 168.579 23.093V23.381C168.579 23.733 168.655 24.045 168.807 24.317C168.967 24.581 169.187 24.785 169.467 24.929C169.755 25.065 170.091 25.133 170.475 25.133C170.819 25.133 171.119 25.081 171.375 24.977C171.639 24.873 171.879 24.717 172.095 24.509L173.091 25.589C172.795 25.925 172.423 26.185 171.975 26.369C171.527 26.545 171.011 26.633 170.427 26.633ZM177.998 26.633C177.262 26.633 176.614 26.489 176.054 26.201C175.502 25.913 175.074 25.521 174.77 25.025C174.466 24.521 174.314 23.949 174.314 23.309C174.314 22.661 174.462 22.089 174.758 21.593C175.062 21.089 175.474 20.697 175.994 20.417C176.514 20.129 177.102 19.985 177.758 19.985C178.39 19.985 178.958 20.121 179.462 20.393C179.974 20.657 180.378 21.041 180.674 21.545C180.97 22.041 181.118 22.637 181.118 23.333C181.118 23.405 181.114 23.489 181.106 23.585C181.098 23.673 181.09 23.757 181.082 23.837H175.838V22.745H180.098L179.378 23.069C179.378 22.733 179.31 22.441 179.174 22.193C179.038 21.945 178.85 21.753 178.61 21.617C178.37 21.473 178.09 21.401 177.77 21.401C177.45 21.401 177.166 21.473 176.918 21.617C176.678 21.753 176.49 21.949 176.354 22.205C176.218 22.453 176.15 22.749 176.15 23.093V23.381C176.15 23.733 176.226 24.045 176.378 24.317C176.538 24.581 176.758 24.785 177.038 24.929C177.326 25.065 177.662 25.133 178.046 25.133C178.39 25.133 178.69 25.081 178.946 24.977C179.21 24.873 179.45 24.717 179.666 24.509L180.662 25.589C180.366 25.925 179.994 26.185 179.546 26.369C179.098 26.545 178.582 26.633 177.998 26.633ZM183.912 25.217L183.96 22.937L186.972 20.081H189.204L186.312 23.021L185.34 23.813L183.912 25.217ZM182.364 26.537V17.633H184.236V26.537H182.364ZM187.176 26.537L184.992 23.825L186.168 22.373L189.444 26.537H187.176ZM190.286 26.537V17.633H192.158V26.537H190.286ZM194.711 28.961C194.375 28.961 194.043 28.909 193.715 28.805C193.387 28.701 193.119 28.557 192.911 28.373L193.595 27.041C193.739 27.169 193.903 27.269 194.087 27.341C194.279 27.413 194.467 27.449 194.651 27.449C194.915 27.449 195.123 27.385 195.275 27.257C195.435 27.137 195.579 26.933 195.707 26.645L196.043 25.853L196.187 25.649L198.503 20.081H200.303L197.387 26.933C197.179 27.453 196.939 27.861 196.667 28.157C196.403 28.453 196.107 28.661 195.779 28.781C195.459 28.901 195.103 28.961 194.711 28.961ZM195.815 26.789L192.935 20.081H194.867L197.099 25.481L195.815 26.789Z"  fill="black" />
<path d="M155.297 22.817H200.207V23.417H155.297V22.817Z"  fill="black" />
<path d="M221.839 19.985C222.351 19.985 222.803 20.089 223.195 20.297C223.595 20.497 223.907 20.809 224.131 21.233C224.363 21.649 224.479 22.185 224.479 22.841V26.537H222.607V23.129C222.607 22.609 222.499 22.225 222.283 21.977C222.067 21.729 221.763 21.605 221.371 21.605C221.099 21.605 220.855 21.669 220.639 21.797C220.423 21.917 220.255 22.101 220.135 22.349C220.015 22.597 219.955 22.913 219.955 23.297V26.537H218.083V23.129C218.083 22.609 217.975 22.225 217.759 21.977C217.551 21.729 217.251 21.605 216.859 21.605C216.587 21.605 216.343 21.669 216.127 21.797C215.911 21.917 215.743 22.101 215.623 22.349C215.503 22.597 215.443 22.913 215.443 23.297V26.537H213.571V20.081H215.359V21.845L215.023 21.329C215.247 20.889 215.563 20.557 215.971 20.333C216.387 20.101 216.859 19.985 217.387 19.985C217.979 19.985 218.495 20.137 218.935 20.441C219.383 20.737 219.679 21.193 219.823 21.809L219.163 21.629C219.379 21.125 219.723 20.725 220.195 20.429C220.675 20.133 221.223 19.985 221.839 19.985ZM229.276 26.633C228.588 26.633 227.976 26.489 227.44 26.201C226.912 25.913 226.492 25.521 226.18 25.025C225.876 24.521 225.724 23.949 225.724 23.309C225.724 22.661 225.876 22.089 226.18 21.593C226.492 21.089 226.912 20.697 227.44 20.417C227.976 20.129 228.588 19.985 229.276 19.985C229.956 19.985 230.564 20.129 231.1 20.417C231.636 20.697 232.056 21.085 232.36 21.581C232.664 22.077 232.816 22.653 232.816 23.309C232.816 23.949 232.664 24.521 232.36 25.025C232.056 25.521 231.636 25.913 231.1 26.201C230.564 26.489 229.956 26.633 229.276 26.633ZM229.276 25.097C229.588 25.097 229.868 25.025 230.116 24.881C230.364 24.737 230.56 24.533 230.704 24.269C230.848 23.997 230.92 23.677 230.92 23.309C230.92 22.933 230.848 22.613 230.704 22.349C230.56 22.085 230.364 21.881 230.116 21.737C229.868 21.593 229.588 21.521 229.276 21.521C228.964 21.521 228.684 21.593 228.436 21.737C228.188 21.881 227.988 22.085 227.836 22.349C227.692 22.613 227.62 22.933 227.62 23.309C227.62 23.677 227.692 23.997 227.836 24.269C227.988 24.533 228.188 24.737 228.436 24.881C228.684 25.025 228.964 25.097 229.276 25.097ZM237.991 19.985C238.503 19.985 238.959 20.089 239.359 20.297C239.767 20.497 240.087 20.809 240.319 21.233C240.551 21.649 240.667 22.185 240.667 22.841V26.537H238.795V23.129C238.795 22.609 238.679 22.225 238.447 21.977C238.223 21.729 237.903 21.605 237.487 21.605C237.191 21.605 236.923 21.669 236.683 21.797C236.451 21.917 236.267 22.105 236.131 22.361C236.003 22.617 235.939 22.945 235.939 23.345V26.537H234.067V20.081H235.855V21.869L235.519 21.329C235.751 20.897 236.083 20.565 236.515 20.333C236.947 20.101 237.439 19.985 237.991 19.985ZM245.004 26.633C244.244 26.633 243.652 26.441 243.228 26.057C242.804 25.665 242.592 25.085 242.592 24.317V18.653H244.464V24.293C244.464 24.565 244.536 24.777 244.68 24.929C244.824 25.073 245.02 25.145 245.268 25.145C245.564 25.145 245.816 25.065 246.024 24.905L246.528 26.225C246.336 26.361 246.104 26.465 245.832 26.537C245.568 26.601 245.292 26.633 245.004 26.633ZM241.596 21.665V20.225H246.072V21.665H241.596ZM251.503 19.985C252.015 19.985 252.471 20.089 252.871 20.297C253.279 20.497 253.599 20.809 253.831 21.233C254.063 21.649 254.179 22.185 254.179 22.841V26.537H252.307V23.129C252.307 22.609 252.191 22.225 251.959 21.977C251.735 21.729 251.415 21.605 250.999 21.605C250.703 21.605 250.435 21.669 250.195 21.797C249.963 21.917 249.779 22.105 249.643 22.361C249.515 22.617 249.451 22.945 249.451 23.345V26.537H247.579V17.633H249.451V21.869L249.031 21.329C249.263 20.897 249.595 20.565 250.027 20.333C250.459 20.101 250.951 19.985 251.503 19.985ZM255.876 26.537V17.633H257.748V26.537H255.876ZM260.301 28.961C259.965 28.961 259.633 28.909 259.305 28.805C258.977 28.701 258.709 28.557 258.501 28.373L259.185 27.041C259.329 27.169 259.493 27.269 259.677 27.341C259.869 27.413 260.057 27.449 260.241 27.449C260.505 27.449 260.713 27.385 260.865 27.257C261.025 27.137 261.169 26.933 261.297 26.645L261.633 25.853L261.777 25.649L264.093 20.081H265.893L262.977 26.933C262.769 27.453 262.529 27.861 262.257 28.157C261.993 28.453 261.697 28.661 261.369 28.781C261.049 28.901 260.693 28.961 260.301 28.961ZM261.405 26.789L258.525 20.081H260.457L262.689 25.481L261.405 26.789Z"  fill="black" />
<rect x="95" y="62.7037" width="199" height="140.296" rx="9"  stroke="black" stroke-width="2"/>
<path d="M104.037 98.3519L107.781 89.9519H109.701L113.457 98.3519H111.417L108.345 90.9359H109.113L106.029 98.3519H104.037ZM105.909 96.5519L106.425 95.0759H110.745L111.273 96.5519H105.909ZM116.803 98.4479C116.267 98.4479 115.787 98.3439 115.363 98.1359C114.947 97.9279 114.623 97.6119 114.391 97.1879C114.159 96.7559 114.043 96.2079 114.043 95.5439V91.8959H115.915V95.2679C115.915 95.8039 116.027 96.1999 116.251 96.4559C116.483 96.7039 116.807 96.8279 117.223 96.8279C117.511 96.8279 117.767 96.7679 117.991 96.6479C118.215 96.5199 118.391 96.3279 118.519 96.0719C118.647 95.8079 118.711 95.4799 118.711 95.0879V91.8959H120.583V98.3519H118.807V96.5759L119.131 97.0919C118.915 97.5399 118.595 97.8799 118.171 98.1119C117.755 98.3359 117.299 98.4479 116.803 98.4479ZM125.353 100.776C124.745 100.776 124.157 100.7 123.589 100.548C123.029 100.404 122.561 100.184 122.185 99.8879L122.929 98.5439C123.201 98.7679 123.545 98.9439 123.961 99.0719C124.385 99.2079 124.801 99.2759 125.209 99.2759C125.873 99.2759 126.353 99.1279 126.649 98.8319C126.953 98.5359 127.105 98.0959 127.105 97.5119V96.5399L127.225 94.9199L127.201 93.2879V91.8959H128.977V97.2719C128.977 98.4719 128.665 99.3559 128.041 99.9239C127.417 100.492 126.521 100.776 125.353 100.776ZM125.065 98.0399C124.465 98.0399 123.921 97.9119 123.433 97.6559C122.953 97.3919 122.565 97.0279 122.269 96.5639C121.981 96.0919 121.837 95.5439 121.837 94.9199C121.837 94.2879 121.981 93.7399 122.269 93.2759C122.565 92.8039 122.953 92.4399 123.433 92.1839C123.921 91.9279 124.465 91.7999 125.065 91.7999C125.609 91.7999 126.089 91.9119 126.505 92.1359C126.921 92.3519 127.245 92.6919 127.477 93.1559C127.709 93.6119 127.825 94.1999 127.825 94.9199C127.825 95.6319 127.709 96.2199 127.477 96.6839C127.245 97.1399 126.921 97.4799 126.505 97.7039C126.089 97.9279 125.609 98.0399 125.065 98.0399ZM125.437 96.5039C125.765 96.5039 126.057 96.4399 126.313 96.3119C126.569 96.1759 126.769 95.9879 126.913 95.7479C127.057 95.5079 127.129 95.2319 127.129 94.9199C127.129 94.5999 127.057 94.3239 126.913 94.0919C126.769 93.8519 126.569 93.6679 126.313 93.5399C126.057 93.4039 125.765 93.3359 125.437 93.3359C125.109 93.3359 124.817 93.4039 124.561 93.5399C124.305 93.6679 124.101 93.8519 123.949 94.0919C123.805 94.3239 123.733 94.5999 123.733 94.9199C123.733 95.2319 123.805 95.5079 123.949 95.7479C124.101 95.9879 124.305 96.1759 124.561 96.3119C124.817 96.4399 125.109 96.5039 125.437 96.5039Z"  fill="black" />
<rect x="105" y="116.352" width="23" height="23" rx="11.5"  stroke="black" stroke-width="2"/>
<path d="M115.914 132.352V124.672L116.754 125.512H114.234V123.952H117.858V132.352H115.914Z"  fill="black" />
<rect x="144" y="116.352" width="23" height="23" rx="11.5"  stroke="black" stroke-width="2"/>
<path d="M152.357 132.352V131.092L155.597 128.032C155.853 127.8 156.041 127.592 156.161 127.408C156.281 127.224 156.361 127.056 156.401 126.904C156.449 126.752 156.473 126.612 156.473 126.484C156.473 126.148 156.357 125.892 156.125 125.716C155.901 125.532 155.569 125.44 155.129 125.44C154.777 125.44 154.449 125.508 154.145 125.644C153.849 125.78 153.597 125.992 153.389 126.28L151.973 125.368C152.293 124.888 152.741 124.508 153.317 124.228C153.893 123.948 154.557 123.808 155.309 123.808C155.933 123.808 156.477 123.912 156.941 124.12C157.413 124.32 157.777 124.604 158.033 124.972C158.297 125.34 158.429 125.78 158.429 126.292C158.429 126.564 158.393 126.836 158.321 127.108C158.257 127.372 158.121 127.652 157.913 127.948C157.713 128.244 157.417 128.576 157.025 128.944L154.337 131.476L153.965 130.768H158.705V132.352H152.357Z"  fill="black" />
<rect x="183" y="116.352" width="23" height="23" rx="11.5"  stroke="black" stroke-width="2"/>
<path d="M194.141 132.496C193.557 132.496 192.977 132.42 192.401 132.268C191.825 132.108 191.337 131.884 190.937 131.596L191.693 130.108C192.013 130.34 192.385 130.524 192.809 130.66C193.233 130.796 193.661 130.864 194.093 130.864C194.581 130.864 194.965 130.768 195.245 130.576C195.525 130.384 195.665 130.12 195.665 129.784C195.665 129.464 195.541 129.212 195.293 129.028C195.045 128.844 194.645 128.752 194.093 128.752H193.205V127.468L195.545 124.816L195.761 125.512H191.357V123.952H197.237V125.212L194.909 127.864L193.925 127.3H194.489C195.521 127.3 196.301 127.532 196.829 127.996C197.357 128.46 197.621 129.056 197.621 129.784C197.621 130.256 197.497 130.7 197.249 131.116C197.001 131.524 196.621 131.856 196.109 132.112C195.597 132.368 194.941 132.496 194.141 132.496Z"  fill="black" />
<rect x="222" y="116.352" width="23" height="23" rx="11.5"  stroke="black" stroke-width="2"/>
<path d="M229.735 130.588V129.28L233.695 123.952H235.735L231.859 129.28L230.911 129.004H237.523V130.588H229.735ZM234.259 132.352V130.588L234.319 129.004V127.432H236.155V132.352H234.259Z"  fill="black" />
<rect x="261" y="116.352" width="23" height="23" rx="11.5"  stroke="black" stroke-width="2"/>
<path d="M272.256 132.496C271.672 132.496 271.092 132.42 270.516 132.268C269.948 132.108 269.46 131.884 269.052 131.596L269.82 130.108C270.14 130.34 270.508 130.524 270.924 130.66C271.348 130.796 271.776 130.864 272.208 130.864C272.696 130.864 273.08 130.768 273.36 130.576C273.64 130.384 273.78 130.116 273.78 129.772C273.78 129.556 273.724 129.364 273.612 129.196C273.5 129.028 273.3 128.9 273.012 128.812C272.732 128.724 272.336 128.68 271.824 128.68H269.676L270.108 123.952H275.232V125.512H270.804L271.812 124.624L271.512 127.996L270.504 127.108H272.28C273.112 127.108 273.78 127.224 274.284 127.456C274.796 127.68 275.168 127.988 275.4 128.38C275.632 128.772 275.748 129.216 275.748 129.712C275.748 130.208 275.624 130.668 275.376 131.092C275.128 131.508 274.744 131.848 274.224 132.112C273.712 132.368 273.056 132.496 272.256 132.496Z"  fill="black" />
<rect x="105" y="155.352" width="23" height="23" rx="11.5"  stroke="black" stroke-width="2"/>
<path d="M116.904 171.496C116.136 171.496 115.468 171.336 114.9 171.016C114.34 170.696 113.908 170.228 113.604 169.612C113.3 168.996 113.148 168.236 113.148 167.332C113.148 166.364 113.328 165.544 113.688 164.872C114.056 164.2 114.56 163.688 115.2 163.336C115.848 162.984 116.592 162.808 117.432 162.808C117.88 162.808 118.308 162.856 118.716 162.952C119.124 163.048 119.476 163.192 119.772 163.384L119.052 164.812C118.82 164.652 118.572 164.544 118.308 164.488C118.044 164.424 117.768 164.392 117.48 164.392C116.752 164.392 116.176 164.612 115.752 165.052C115.328 165.492 115.116 166.144 115.116 167.008C115.116 167.152 115.116 167.312 115.116 167.488C115.124 167.664 115.148 167.84 115.188 168.016L114.648 167.512C114.8 167.2 114.996 166.94 115.236 166.732C115.476 166.516 115.76 166.356 116.088 166.252C116.424 166.14 116.792 166.084 117.192 166.084C117.736 166.084 118.224 166.192 118.656 166.408C119.088 166.624 119.432 166.928 119.688 167.32C119.952 167.712 120.084 168.172 120.084 168.7C120.084 169.268 119.94 169.764 119.652 170.188C119.372 170.604 118.992 170.928 118.512 171.16C118.04 171.384 117.504 171.496 116.904 171.496ZM116.796 170.044C117.068 170.044 117.308 169.996 117.516 169.9C117.732 169.796 117.9 169.648 118.02 169.456C118.14 169.264 118.2 169.044 118.2 168.796C118.2 168.412 118.068 168.108 117.804 167.884C117.548 167.652 117.204 167.536 116.772 167.536C116.484 167.536 116.232 167.592 116.016 167.704C115.8 167.808 115.628 167.956 115.5 168.148C115.38 168.332 115.32 168.548 115.32 168.796C115.32 169.036 115.38 169.252 115.5 169.444C115.62 169.628 115.788 169.776 116.004 169.888C116.22 169.992 116.484 170.044 116.796 170.044Z"  fill="black" />
<rect x="144" y="155.352" width="23" height="23" rx="11.5"  stroke="black" stroke-width="2"/>
<path d="M153.591 171.352L156.975 163.696L157.479 164.536H152.955L153.819 163.624V165.904H152.091V162.952H158.823V164.212L155.703 171.352H153.591Z"  fill="black" />
<rect x="183" y="155.352" width="23" height="23" rx="11.5"  stroke="black" stroke-width="2"/>
<path d="M194.487 171.496C193.783 171.496 193.167 171.392 192.639 171.184C192.111 170.968 191.699 170.668 191.403 170.284C191.107 169.892 190.959 169.436 190.959 168.916C190.959 168.396 191.103 167.956 191.391 167.596C191.687 167.228 192.099 166.952 192.627 166.768C193.155 166.576 193.775 166.48 194.487 166.48C195.207 166.48 195.831 166.576 196.359 166.768C196.895 166.952 197.307 167.228 197.595 167.596C197.891 167.956 198.039 168.396 198.039 168.916C198.039 169.436 197.891 169.892 197.595 170.284C197.299 170.668 196.883 170.968 196.347 171.184C195.819 171.392 195.199 171.496 194.487 171.496ZM194.487 170.068C194.975 170.068 195.359 169.96 195.639 169.744C195.927 169.528 196.071 169.232 196.071 168.856C196.071 168.48 195.927 168.188 195.639 167.98C195.359 167.764 194.975 167.656 194.487 167.656C194.007 167.656 193.627 167.764 193.347 167.98C193.067 168.188 192.927 168.48 192.927 168.856C192.927 169.232 193.067 169.528 193.347 169.744C193.627 169.96 194.007 170.068 194.487 170.068ZM194.487 167.464C193.839 167.464 193.271 167.376 192.783 167.2C192.303 167.024 191.927 166.768 191.655 166.432C191.391 166.088 191.259 165.68 191.259 165.208C191.259 164.712 191.395 164.288 191.667 163.936C191.939 163.576 192.319 163.3 192.807 163.108C193.295 162.908 193.855 162.808 194.487 162.808C195.135 162.808 195.699 162.908 196.179 163.108C196.667 163.3 197.047 163.576 197.319 163.936C197.599 164.288 197.739 164.712 197.739 165.208C197.739 165.68 197.603 166.088 197.331 166.432C197.067 166.768 196.691 167.024 196.203 167.2C195.715 167.376 195.143 167.464 194.487 167.464ZM194.487 166.324C194.895 166.324 195.215 166.232 195.447 166.048C195.687 165.864 195.807 165.612 195.807 165.292C195.807 164.956 195.683 164.696 195.435 164.512C195.195 164.328 194.879 164.236 194.487 164.236C194.103 164.236 193.791 164.328 193.551 164.512C193.311 164.696 193.191 164.956 193.191 165.292C193.191 165.612 193.307 165.864 193.539 166.048C193.771 166.232 194.087 166.324 194.487 166.324Z"  fill="black" />
<rect x="222" y="155.352" width="23" height="23" rx="11.5"  stroke="black" stroke-width="2"/>
<path d="M233.1 162.808C233.876 162.808 234.544 162.968 235.104 163.288C235.664 163.608 236.096 164.076 236.4 164.692C236.704 165.3 236.856 166.06 236.856 166.972C236.856 167.94 236.672 168.76 236.304 169.432C235.944 170.104 235.444 170.616 234.804 170.968C234.164 171.32 233.42 171.496 232.572 171.496C232.132 171.496 231.708 171.448 231.3 171.352C230.892 171.256 230.54 171.112 230.244 170.92L230.964 169.492C231.196 169.652 231.444 169.764 231.708 169.828C231.972 169.884 232.248 169.912 232.536 169.912C233.256 169.912 233.828 169.692 234.252 169.252C234.684 168.812 234.9 168.16 234.9 167.296C234.9 167.152 234.896 166.992 234.888 166.816C234.88 166.64 234.86 166.464 234.828 166.288L235.356 166.792C235.22 167.104 235.028 167.368 234.78 167.584C234.532 167.792 234.244 167.952 233.916 168.064C233.588 168.168 233.22 168.22 232.812 168.22C232.276 168.22 231.788 168.112 231.348 167.896C230.916 167.68 230.568 167.376 230.304 166.984C230.048 166.592 229.92 166.132 229.92 165.604C229.92 165.028 230.06 164.532 230.34 164.116C230.628 163.7 231.012 163.38 231.492 163.156C231.98 162.924 232.516 162.808 233.1 162.808ZM233.22 164.26C232.94 164.26 232.696 164.312 232.488 164.416C232.28 164.512 232.116 164.656 231.996 164.848C231.876 165.032 231.816 165.252 231.816 165.508C231.816 165.892 231.944 166.2 232.2 166.432C232.464 166.656 232.812 166.768 233.244 166.768C233.524 166.768 233.772 166.716 233.988 166.612C234.212 166.5 234.384 166.348 234.504 166.156C234.624 165.964 234.684 165.748 234.684 165.508C234.684 165.268 234.624 165.056 234.504 164.872C234.392 164.68 234.228 164.532 234.012 164.428C233.796 164.316 233.532 164.26 233.22 164.26Z"  fill="black" />
</svg>
