<svg width="301" height="" viewBox="0 0 301 240" fill="none" xmlns="http://www.w3.org/2000/svg">
<path d="M260.363 72.0495C257.238 76.3342 253.936 79.7296 251.148 81.7651C249.75 82.7865 248.526 83.4316 247.551 83.7002C246.554 83.9751 246.015 83.8091 245.743 83.5611C245.471 83.3131 245.217 82.7562 245.257 81.6085C245.297 80.4871 245.616 79.0174 246.23 77.2802C247.453 73.8179 249.764 69.5193 252.889 65.2347C256.015 60.95 259.317 57.5545 262.105 55.519C263.503 54.4977 264.727 53.8525 265.702 53.5839C266.699 53.309 267.238 53.475 267.51 53.723C267.782 53.9711 268.036 54.5279 267.996 55.6757C267.956 56.7971 267.637 58.2668 267.023 60.004C265.8 63.4662 263.489 67.7648 260.363 72.0495Z" stroke="white" stroke-width="2"/>
<path d="M250.064 67.4203L245.153 84.369L260.059 74.153L133.622 235.032L250.064 67.4203Z" fill="white"/>
<path d="M1.66908 64.1625C1.66908 64.1625 83.3554 150.874 95.1141 111.916C106.873 72.9575 109.759 41.1007 154.316 56.7827C198.873 72.4648 249.204 158.254 274.164 127.598C299.124 96.9421 229.401 56.7826 237.653 23.574C245.905 -9.63462 300.362 14.3493 300.362 14.3493" stroke="white" stroke-width="2"/>
</svg>
