<svg width="289" height="" viewBox="0 0 289 206" fill="none" xmlns="http://www.w3.org/2000/svg">
<path d="M70.5 5.66286C70.5 5.66286 43.195 -4.82857 38.2305 5.66286C33.266 16.1543 46.1738 58.9943 38.2305 73.8571C30.2872 88.72 0.499999 94.84 0.499999 94.84C0.499999 94.84 33.266 94.84 38.2305 109.703C43.195 124.566 32.273 182.269 38.2305 198.006C44.1879 213.743 70.5 198.006 70.5 198.006" stroke="white" stroke-width="2"/>
<path d="M217.5 5.66286C217.5 5.66286 245.195 -4.82857 250.23 5.66286C255.266 16.1543 242.174 58.9943 250.23 73.8571C258.287 88.72 288.5 94.84 288.5 94.84C288.5 94.84 255.266 94.84 250.23 109.703C245.195 124.566 256.273 182.269 250.23 198.006C244.188 213.743 217.5 198.006 217.5 198.006" stroke="white" stroke-width="2"/>
<path d="M71.2 58.12C70.1733 58.12 69.2533 57.8933 68.44 57.44C67.64 56.9867 67.0067 56.3533 66.54 55.54C66.0733 54.7267 65.84 53.78 65.84 52.7C65.84 51.62 66.0733 50.68 66.54 49.88C67.0067 49.0667 67.64 48.4333 68.44 47.98C69.2533 47.5267 70.1733 47.3 71.2 47.3C72.0933 47.3 72.9 47.5 73.62 47.9C74.34 48.3 74.9133 48.9 75.34 49.7C75.78 50.5 76 51.5 76 52.7C76 53.9 75.7867 54.9 75.36 55.7C74.9467 56.5 74.38 57.1067 73.66 57.52C72.94 57.92 72.12 58.12 71.2 58.12ZM71.36 56.44C72.0267 56.44 72.6267 56.2867 73.16 55.98C73.7067 55.6733 74.1333 55.24 74.44 54.68C74.76 54.1067 74.92 53.4467 74.92 52.7C74.92 51.94 74.76 51.2867 74.44 50.74C74.1333 50.18 73.7067 49.7467 73.16 49.44C72.6267 49.1333 72.0267 48.98 71.36 48.98C70.68 48.98 70.0733 49.1333 69.54 49.44C69.0067 49.7467 68.58 50.18 68.26 50.74C67.94 51.2867 67.78 51.94 67.78 52.7C67.78 53.4467 67.94 54.1067 68.26 54.68C68.58 55.24 69.0067 55.6733 69.54 55.98C70.0733 56.2867 70.68 56.44 71.36 56.44ZM74.98 58V55.14L75.1 52.68L74.9 50.22V43.16H76.82V58H74.98ZM87.0328 58V55.76L86.9328 55.34V51.52C86.9328 50.7067 86.6928 50.08 86.2128 49.64C85.7461 49.1867 85.0395 48.96 84.0928 48.96C83.4661 48.96 82.8528 49.0667 82.2528 49.28C81.6528 49.48 81.1461 49.7533 80.7328 50.1L79.9328 48.66C80.4795 48.22 81.1328 47.8867 81.8928 47.66C82.6661 47.42 83.4728 47.3 84.3128 47.3C85.7661 47.3 86.8861 47.6533 87.6728 48.36C88.4595 49.0667 88.8528 50.1467 88.8528 51.6V58H87.0328ZM83.5528 58.12C82.7661 58.12 82.0728 57.9867 81.4728 57.72C80.8861 57.4533 80.4328 57.0867 80.1128 56.62C79.7928 56.14 79.6328 55.6 79.6328 55C79.6328 54.4267 79.7661 53.9067 80.0328 53.44C80.3128 52.9733 80.7595 52.6 81.3728 52.32C81.9995 52.04 82.8395 51.9 83.8928 51.9H87.2528V53.28H83.9728C83.0128 53.28 82.3661 53.44 82.0328 53.76C81.6995 54.08 81.5328 54.4667 81.5328 54.92C81.5328 55.44 81.7395 55.86 82.1528 56.18C82.5661 56.4867 83.1395 56.64 83.8728 56.64C84.5928 56.64 85.2195 56.48 85.7528 56.16C86.2995 55.84 86.6928 55.3733 86.9328 54.76L87.3128 56.08C87.0595 56.7067 86.6128 57.2067 85.9728 57.58C85.3328 57.94 84.5261 58.12 83.5528 58.12ZM98.0659 47.3C98.9326 47.3 99.6926 47.4667 100.346 47.8C101.013 48.1333 101.533 48.64 101.906 49.32C102.279 50 102.466 50.86 102.466 51.9V58H100.546V52.12C100.546 51.0933 100.293 50.32 99.7859 49.8C99.2926 49.28 98.5926 49.02 97.6859 49.02C97.0059 49.02 96.4126 49.1533 95.9059 49.42C95.3993 49.6867 95.0059 50.08 94.7259 50.6C94.4593 51.12 94.3259 51.7667 94.3259 52.54V58H92.4059V47.4H94.2459V50.26L93.9459 49.5C94.2926 48.8067 94.8259 48.2667 95.5459 47.88C96.2659 47.4933 97.1059 47.3 98.0659 47.3ZM110.659 62C109.686 62 108.739 61.86 107.819 61.58C106.913 61.3133 106.173 60.9267 105.599 60.42L106.519 58.94C107.013 59.3667 107.619 59.7 108.339 59.94C109.059 60.1933 109.813 60.32 110.599 60.32C111.853 60.32 112.773 60.0267 113.359 59.44C113.946 58.8533 114.239 57.96 114.239 56.76V54.52L114.439 52.42L114.339 50.3V47.4H116.159V56.56C116.159 58.4267 115.693 59.8 114.759 60.68C113.826 61.56 112.459 62 110.659 62ZM110.419 57.56C109.393 57.56 108.473 57.3467 107.659 56.92C106.859 56.48 106.219 55.8733 105.739 55.1C105.273 54.3267 105.039 53.4333 105.039 52.42C105.039 51.3933 105.273 50.5 105.739 49.74C106.219 48.9667 106.859 48.3667 107.659 47.94C108.473 47.5133 109.393 47.3 110.419 47.3C111.326 47.3 112.153 47.4867 112.899 47.86C113.646 48.22 114.239 48.78 114.679 49.54C115.133 50.3 115.359 51.26 115.359 52.42C115.359 53.5667 115.133 54.52 114.679 55.28C114.239 56.04 113.646 56.6133 112.899 57C112.153 57.3733 111.326 57.56 110.419 57.56ZM110.639 55.88C111.346 55.88 111.973 55.7333 112.519 55.44C113.066 55.1467 113.493 54.74 113.799 54.22C114.119 53.7 114.279 53.1 114.279 52.42C114.279 51.74 114.119 51.14 113.799 50.62C113.493 50.1 113.066 49.7 112.519 49.42C111.973 49.1267 111.346 48.98 110.639 48.98C109.933 48.98 109.299 49.1267 108.739 49.42C108.193 49.7 107.759 50.1 107.439 50.62C107.133 51.14 106.979 51.74 106.979 52.42C106.979 53.1 107.133 53.7 107.439 54.22C107.759 54.74 108.193 55.1467 108.739 55.44C109.299 55.7333 109.933 55.88 110.639 55.88ZM124.548 58.12C123.414 58.12 122.414 57.8867 121.548 57.42C120.694 56.9533 120.028 56.3133 119.548 55.5C119.081 54.6867 118.848 53.7533 118.848 52.7C118.848 51.6467 119.074 50.7133 119.528 49.9C119.994 49.0867 120.628 48.4533 121.428 48C122.241 47.5333 123.154 47.3 124.168 47.3C125.194 47.3 126.101 47.5267 126.888 47.98C127.674 48.4333 128.288 49.0733 128.728 49.9C129.181 50.7133 129.408 51.6667 129.408 52.76C129.408 52.84 129.401 52.9333 129.388 53.04C129.388 53.1467 129.381 53.2467 129.368 53.34H120.348V51.96H128.368L127.588 52.44C127.601 51.76 127.461 51.1533 127.168 50.62C126.874 50.0867 126.468 49.6733 125.948 49.38C125.441 49.0733 124.848 48.92 124.168 48.92C123.501 48.92 122.908 49.0733 122.388 49.38C121.868 49.6733 121.461 50.0933 121.168 50.64C120.874 51.1733 120.728 51.7867 120.728 52.48V52.8C120.728 53.5067 120.888 54.14 121.208 54.7C121.541 55.2467 122.001 55.6733 122.588 55.98C123.174 56.2867 123.848 56.44 124.608 56.44C125.234 56.44 125.801 56.3333 126.308 56.12C126.828 55.9067 127.281 55.5867 127.668 55.16L128.728 56.4C128.248 56.96 127.648 57.3867 126.928 57.68C126.221 57.9733 125.428 58.12 124.548 58.12ZM132.074 58V47.4H133.914V50.28L133.734 49.56C134.027 48.8267 134.521 48.2667 135.214 47.88C135.907 47.4933 136.761 47.3 137.774 47.3V49.16C137.694 49.1467 137.614 49.14 137.534 49.14C137.467 49.14 137.401 49.14 137.334 49.14C136.307 49.14 135.494 49.4467 134.894 50.06C134.294 50.6733 133.994 51.56 133.994 52.72V58H132.074ZM140.737 50.04C140.364 50.04 140.044 49.9133 139.777 49.66C139.51 49.3933 139.377 49.06 139.377 48.66C139.377 48.26 139.51 47.9333 139.777 47.68C140.044 47.4267 140.364 47.3 140.737 47.3C141.097 47.3 141.404 47.4267 141.657 47.68C141.924 47.9333 142.057 48.26 142.057 48.66C142.057 49.06 141.924 49.3933 141.657 49.66C141.404 49.9133 141.097 50.04 140.737 50.04ZM140.737 58.12C140.364 58.12 140.044 57.9933 139.777 57.74C139.51 57.4733 139.377 57.14 139.377 56.74C139.377 56.34 139.51 56.0133 139.777 55.76C140.044 55.5067 140.364 55.38 140.737 55.38C141.097 55.38 141.404 55.5067 141.657 55.76C141.924 56.0133 142.057 56.34 142.057 56.74C142.057 57.14 141.924 57.4733 141.657 57.74C141.404 57.9933 141.097 58.12 140.737 58.12ZM155.55 58V47.4H157.39V50.28L157.21 49.56C157.504 48.8267 157.997 48.2667 158.69 47.88C159.384 47.4933 160.237 47.3 161.25 47.3V49.16C161.17 49.1467 161.09 49.14 161.01 49.14C160.944 49.14 160.877 49.14 160.81 49.14C159.784 49.14 158.97 49.4467 158.37 50.06C157.77 50.6733 157.47 51.56 157.47 52.72V58H155.55ZM168.239 58.12C167.106 58.12 166.106 57.8867 165.239 57.42C164.386 56.9533 163.719 56.3133 163.239 55.5C162.773 54.6867 162.539 53.7533 162.539 52.7C162.539 51.6467 162.766 50.7133 163.219 49.9C163.686 49.0867 164.319 48.4533 165.119 48C165.933 47.5333 166.846 47.3 167.859 47.3C168.886 47.3 169.793 47.5267 170.579 47.98C171.366 48.4333 171.979 49.0733 172.419 49.9C172.873 50.7133 173.099 51.6667 173.099 52.76C173.099 52.84 173.093 52.9333 173.079 53.04C173.079 53.1467 173.073 53.2467 173.059 53.34H164.039V51.96H172.059L171.279 52.44C171.293 51.76 171.153 51.1533 170.859 50.62C170.566 50.0867 170.159 49.6733 169.639 49.38C169.133 49.0733 168.539 48.92 167.859 48.92C167.193 48.92 166.599 49.0733 166.079 49.38C165.559 49.6733 165.153 50.0933 164.859 50.64C164.566 51.1733 164.419 51.7867 164.419 52.48V52.8C164.419 53.5067 164.579 54.14 164.899 54.7C165.233 55.2467 165.693 55.6733 166.279 55.98C166.866 56.2867 167.539 56.44 168.299 56.44C168.926 56.44 169.493 56.3333 169.999 56.12C170.519 55.9067 170.973 55.5867 171.359 55.16L172.419 56.4C171.939 56.96 171.339 57.3867 170.619 57.68C169.913 57.9733 169.119 58.12 168.239 58.12ZM180.145 58.12C179.119 58.12 178.199 57.8933 177.385 57.44C176.585 56.9867 175.952 56.3533 175.485 55.54C175.019 54.7267 174.785 53.78 174.785 52.7C174.785 51.62 175.019 50.68 175.485 49.88C175.952 49.0667 176.585 48.4333 177.385 47.98C178.199 47.5267 179.119 47.3 180.145 47.3C181.039 47.3 181.845 47.5 182.565 47.9C183.285 48.3 183.859 48.9 184.285 49.7C184.725 50.5 184.945 51.5 184.945 52.7C184.945 53.9 184.732 54.9 184.305 55.7C183.892 56.5 183.325 57.1067 182.605 57.52C181.885 57.92 181.065 58.12 180.145 58.12ZM180.305 56.44C180.972 56.44 181.572 56.2867 182.105 55.98C182.652 55.6733 183.079 55.24 183.385 54.68C183.705 54.1067 183.865 53.4467 183.865 52.7C183.865 51.94 183.705 51.2867 183.385 50.74C183.079 50.18 182.652 49.7467 182.105 49.44C181.572 49.1333 180.972 48.98 180.305 48.98C179.625 48.98 179.019 49.1333 178.485 49.44C177.952 49.7467 177.525 50.18 177.205 50.74C176.885 51.2867 176.725 51.94 176.725 52.7C176.725 53.4467 176.885 54.1067 177.205 54.68C177.525 55.24 177.952 55.6733 178.485 55.98C179.019 56.2867 179.625 56.44 180.305 56.44ZM183.925 58V55.14L184.045 52.68L183.845 50.22V43.16H185.765V58H183.925ZM69.86 106.12C68.98 106.12 68.14 106 67.34 105.76C66.5533 105.52 65.9333 105.227 65.48 104.88L66.28 103.36C66.7333 103.667 67.2933 103.927 67.96 104.14C68.6267 104.353 69.3067 104.46 70 104.46C70.8933 104.46 71.5333 104.333 71.92 104.08C72.32 103.827 72.52 103.473 72.52 103.02C72.52 102.687 72.4 102.427 72.16 102.24C71.92 102.053 71.6 101.913 71.2 101.82C70.8133 101.727 70.38 101.647 69.9 101.58C69.42 101.5 68.94 101.407 68.46 101.3C67.98 101.18 67.54 101.02 67.14 100.82C66.74 100.607 66.42 100.32 66.18 99.96C65.94 99.5867 65.82 99.0933 65.82 98.48C65.82 97.84 66 97.28 66.36 96.8C66.72 96.32 67.2267 95.9533 67.88 95.7C68.5467 95.4333 69.3333 95.3 70.24 95.3C70.9333 95.3 71.6333 95.3867 72.34 95.56C73.06 95.72 73.6467 95.9533 74.1 96.26L73.28 97.78C72.8 97.46 72.3 97.24 71.78 97.12C71.26 97 70.74 96.94 70.22 96.94C69.38 96.94 68.7533 97.08 68.34 97.36C67.9267 97.6267 67.72 97.9733 67.72 98.4C67.72 98.76 67.84 99.04 68.08 99.24C68.3333 99.4267 68.6533 99.5733 69.04 99.68C69.44 99.7867 69.88 99.88 70.36 99.96C70.84 100.027 71.32 100.12 71.8 100.24C72.28 100.347 72.7133 100.5 73.1 100.7C73.5 100.9 73.82 101.18 74.06 101.54C74.3133 101.9 74.44 102.38 74.44 102.98C74.44 103.62 74.2533 104.173 73.88 104.64C73.5067 105.107 72.98 105.473 72.3 105.74C71.62 105.993 70.8067 106.12 69.86 106.12ZM81.2995 106.12C80.3929 106.12 79.5929 105.953 78.8995 105.62C78.2195 105.287 77.6862 104.78 77.2995 104.1C76.9262 103.407 76.7395 102.54 76.7395 101.5V95.4H78.6595V101.28C78.6595 102.32 78.9062 103.1 79.3995 103.62C79.9062 104.14 80.6129 104.4 81.5195 104.4C82.1862 104.4 82.7662 104.267 83.2595 104C83.7529 103.72 84.1329 103.32 84.3995 102.8C84.6662 102.267 84.7995 101.627 84.7995 100.88V95.4H86.7195V106H84.8995V103.14L85.1995 103.9C84.8529 104.607 84.3329 105.153 83.6395 105.54C82.9462 105.927 82.1662 106.12 81.2995 106.12ZM94.9947 106.12C93.9147 106.12 92.948 105.887 92.0947 105.42C91.2547 104.953 90.5947 104.313 90.1147 103.5C89.6347 102.687 89.3947 101.753 89.3947 100.7C89.3947 99.6467 89.6347 98.7133 90.1147 97.9C90.5947 97.0867 91.2547 96.4533 92.0947 96C92.948 95.5333 93.9147 95.3 94.9947 95.3C95.9547 95.3 96.808 95.4933 97.5547 95.88C98.3147 96.2533 98.9014 96.8133 99.3147 97.56L97.8547 98.5C97.508 97.98 97.0814 97.6 96.5747 97.36C96.0814 97.1067 95.548 96.98 94.9747 96.98C94.2814 96.98 93.6614 97.1333 93.1147 97.44C92.568 97.7467 92.1347 98.18 91.8147 98.74C91.4947 99.2867 91.3347 99.94 91.3347 100.7C91.3347 101.46 91.4947 102.12 91.8147 102.68C92.1347 103.24 92.568 103.673 93.1147 103.98C93.6614 104.287 94.2814 104.44 94.9747 104.44C95.548 104.44 96.0814 104.32 96.5747 104.08C97.0814 103.827 97.508 103.44 97.8547 102.92L99.3147 103.84C98.9014 104.573 98.3147 105.14 97.5547 105.54C96.808 105.927 95.9547 106.12 94.9947 106.12ZM106.264 106.12C105.184 106.12 104.218 105.887 103.364 105.42C102.524 104.953 101.864 104.313 101.384 103.5C100.904 102.687 100.664 101.753 100.664 100.7C100.664 99.6467 100.904 98.7133 101.384 97.9C101.864 97.0867 102.524 96.4533 103.364 96C104.218 95.5333 105.184 95.3 106.264 95.3C107.224 95.3 108.078 95.4933 108.824 95.88C109.584 96.2533 110.171 96.8133 110.584 97.56L109.124 98.5C108.778 97.98 108.351 97.6 107.844 97.36C107.351 97.1067 106.818 96.98 106.244 96.98C105.551 96.98 104.931 97.1333 104.384 97.44C103.838 97.7467 103.404 98.18 103.084 98.74C102.764 99.2867 102.604 99.94 102.604 100.7C102.604 101.46 102.764 102.12 103.084 102.68C103.404 103.24 103.838 103.673 104.384 103.98C104.931 104.287 105.551 104.44 106.244 104.44C106.818 104.44 107.351 104.32 107.844 104.08C108.351 103.827 108.778 103.44 109.124 102.92L110.584 103.84C110.171 104.573 109.584 105.14 108.824 105.54C108.078 105.927 107.224 106.12 106.264 106.12ZM117.634 106.12C116.5 106.12 115.5 105.887 114.634 105.42C113.78 104.953 113.114 104.313 112.634 103.5C112.167 102.687 111.934 101.753 111.934 100.7C111.934 99.6467 112.16 98.7133 112.614 97.9C113.08 97.0867 113.714 96.4533 114.514 96C115.327 95.5333 116.24 95.3 117.254 95.3C118.28 95.3 119.187 95.5267 119.974 95.98C120.76 96.4333 121.374 97.0733 121.814 97.9C122.267 98.7133 122.494 99.6667 122.494 100.76C122.494 100.84 122.487 100.933 122.474 101.04C122.474 101.147 122.467 101.247 122.454 101.34H113.434V99.96H121.454L120.674 100.44C120.687 99.76 120.547 99.1533 120.254 98.62C119.96 98.0867 119.554 97.6733 119.034 97.38C118.527 97.0733 117.934 96.92 117.254 96.92C116.587 96.92 115.994 97.0733 115.474 97.38C114.954 97.6733 114.547 98.0933 114.254 98.64C113.96 99.1733 113.814 99.7867 113.814 100.48V100.8C113.814 101.507 113.974 102.14 114.294 102.7C114.627 103.247 115.087 103.673 115.674 103.98C116.26 104.287 116.934 104.44 117.694 104.44C118.32 104.44 118.887 104.333 119.394 104.12C119.914 103.907 120.367 103.587 120.754 103.16L121.814 104.4C121.334 104.96 120.734 105.387 120.014 105.68C119.307 105.973 118.514 106.12 117.634 106.12ZM128.2 106.12C127.32 106.12 126.48 106 125.68 105.76C124.893 105.52 124.273 105.227 123.82 104.88L124.62 103.36C125.073 103.667 125.633 103.927 126.3 104.14C126.967 104.353 127.647 104.46 128.34 104.46C129.233 104.46 129.873 104.333 130.26 104.08C130.66 103.827 130.86 103.473 130.86 103.02C130.86 102.687 130.74 102.427 130.5 102.24C130.26 102.053 129.94 101.913 129.54 101.82C129.153 101.727 128.72 101.647 128.24 101.58C127.76 101.5 127.28 101.407 126.8 101.3C126.32 101.18 125.88 101.02 125.48 100.82C125.08 100.607 124.76 100.32 124.52 99.96C124.28 99.5867 124.16 99.0933 124.16 98.48C124.16 97.84 124.34 97.28 124.7 96.8C125.06 96.32 125.567 95.9533 126.22 95.7C126.887 95.4333 127.673 95.3 128.58 95.3C129.273 95.3 129.973 95.3867 130.68 95.56C131.4 95.72 131.987 95.9533 132.44 96.26L131.62 97.78C131.14 97.46 130.64 97.24 130.12 97.12C129.6 97 129.08 96.94 128.56 96.94C127.72 96.94 127.093 97.08 126.68 97.36C126.267 97.6267 126.06 97.9733 126.06 98.4C126.06 98.76 126.18 99.04 126.42 99.24C126.673 99.4267 126.993 99.5733 127.38 99.68C127.78 99.7867 128.22 99.88 128.7 99.96C129.18 100.027 129.66 100.12 130.14 100.24C130.62 100.347 131.053 100.5 131.44 100.7C131.84 100.9 132.16 101.18 132.4 101.54C132.653 101.9 132.78 102.38 132.78 102.98C132.78 103.62 132.593 104.173 132.22 104.64C131.847 105.107 131.32 105.473 130.64 105.74C129.96 105.993 129.147 106.12 128.2 106.12ZM138.219 106.12C137.339 106.12 136.499 106 135.699 105.76C134.913 105.52 134.293 105.227 133.839 104.88L134.639 103.36C135.093 103.667 135.653 103.927 136.319 104.14C136.986 104.353 137.666 104.46 138.359 104.46C139.253 104.46 139.893 104.333 140.279 104.08C140.679 103.827 140.879 103.473 140.879 103.02C140.879 102.687 140.759 102.427 140.519 102.24C140.279 102.053 139.959 101.913 139.559 101.82C139.173 101.727 138.739 101.647 138.259 101.58C137.779 101.5 137.299 101.407 136.819 101.3C136.339 101.18 135.899 101.02 135.499 100.82C135.099 100.607 134.779 100.32 134.539 99.96C134.299 99.5867 134.179 99.0933 134.179 98.48C134.179 97.84 134.359 97.28 134.719 96.8C135.079 96.32 135.586 95.9533 136.239 95.7C136.906 95.4333 137.693 95.3 138.599 95.3C139.293 95.3 139.993 95.3867 140.699 95.56C141.419 95.72 142.006 95.9533 142.459 96.26L141.639 97.78C141.159 97.46 140.659 97.24 140.139 97.12C139.619 97 139.099 96.94 138.579 96.94C137.739 96.94 137.113 97.08 136.699 97.36C136.286 97.6267 136.079 97.9733 136.079 98.4C136.079 98.76 136.199 99.04 136.439 99.24C136.693 99.4267 137.013 99.5733 137.399 99.68C137.799 99.7867 138.239 99.88 138.719 99.96C139.199 100.027 139.679 100.12 140.159 100.24C140.639 100.347 141.073 100.5 141.459 100.7C141.859 100.9 142.179 101.18 142.419 101.54C142.673 101.9 142.799 102.38 142.799 102.98C142.799 103.62 142.613 104.173 142.239 104.64C141.866 105.107 141.339 105.473 140.659 105.74C139.979 105.993 139.166 106.12 138.219 106.12ZM145.659 98.04C145.286 98.04 144.966 97.9133 144.699 97.66C144.432 97.3933 144.299 97.06 144.299 96.66C144.299 96.26 144.432 95.9333 144.699 95.68C144.966 95.4267 145.286 95.3 145.659 95.3C146.019 95.3 146.326 95.4267 146.579 95.68C146.846 95.9333 146.979 96.26 146.979 96.66C146.979 97.06 146.846 97.3933 146.579 97.66C146.326 97.9133 146.019 98.04 145.659 98.04ZM145.659 106.12C145.286 106.12 144.966 105.993 144.699 105.74C144.432 105.473 144.299 105.14 144.299 104.74C144.299 104.34 144.432 104.013 144.699 103.76C144.966 103.507 145.286 103.38 145.659 103.38C146.019 103.38 146.326 103.507 146.579 103.76C146.846 104.013 146.979 104.34 146.979 104.74C146.979 105.14 146.846 105.473 146.579 105.74C146.326 105.993 146.019 106.12 145.659 106.12ZM159.741 110C158.768 110 157.821 109.86 156.901 109.58C155.995 109.313 155.255 108.927 154.681 108.42L155.601 106.94C156.095 107.367 156.701 107.7 157.421 107.94C158.141 108.193 158.895 108.32 159.681 108.32C160.935 108.32 161.855 108.027 162.441 107.44C163.028 106.853 163.321 105.96 163.321 104.76V102.52L163.521 100.42L163.421 98.3V95.4H165.241V104.56C165.241 106.427 164.775 107.8 163.841 108.68C162.908 109.56 161.541 110 159.741 110ZM159.501 105.56C158.475 105.56 157.555 105.347 156.741 104.92C155.941 104.48 155.301 103.873 154.821 103.1C154.355 102.327 154.121 101.433 154.121 100.42C154.121 99.3933 154.355 98.5 154.821 97.74C155.301 96.9667 155.941 96.3667 156.741 95.94C157.555 95.5133 158.475 95.3 159.501 95.3C160.408 95.3 161.235 95.4867 161.981 95.86C162.728 96.22 163.321 96.78 163.761 97.54C164.215 98.3 164.441 99.26 164.441 100.42C164.441 101.567 164.215 102.52 163.761 103.28C163.321 104.04 162.728 104.613 161.981 105C161.235 105.373 160.408 105.56 159.501 105.56ZM159.721 103.88C160.428 103.88 161.055 103.733 161.601 103.44C162.148 103.147 162.575 102.74 162.881 102.22C163.201 101.7 163.361 101.1 163.361 100.42C163.361 99.74 163.201 99.14 162.881 98.62C162.575 98.1 162.148 97.7 161.601 97.42C161.055 97.1267 160.428 96.98 159.721 96.98C159.015 96.98 158.381 97.1267 157.821 97.42C157.275 97.7 156.841 98.1 156.521 98.62C156.215 99.14 156.061 99.74 156.061 100.42C156.061 101.1 156.215 101.7 156.521 102.22C156.841 102.74 157.275 103.147 157.821 103.44C158.381 103.733 159.015 103.88 159.721 103.88ZM168.91 106V95.4H170.75V98.28L170.57 97.56C170.863 96.8267 171.357 96.2667 172.05 95.88C172.743 95.4933 173.597 95.3 174.61 95.3V97.16C174.53 97.1467 174.45 97.14 174.37 97.14C174.303 97.14 174.237 97.14 174.17 97.14C173.143 97.14 172.33 97.4467 171.73 98.06C171.13 98.6733 170.83 99.56 170.83 100.72V106H168.91ZM181.599 106.12C180.465 106.12 179.465 105.887 178.599 105.42C177.745 104.953 177.079 104.313 176.599 103.5C176.132 102.687 175.899 101.753 175.899 100.7C175.899 99.6467 176.125 98.7133 176.579 97.9C177.045 97.0867 177.679 96.4533 178.479 96C179.292 95.5333 180.205 95.3 181.219 95.3C182.245 95.3 183.152 95.5267 183.939 95.98C184.725 96.4333 185.339 97.0733 185.779 97.9C186.232 98.7133 186.459 99.6667 186.459 100.76C186.459 100.84 186.452 100.933 186.439 101.04C186.439 101.147 186.432 101.247 186.419 101.34H177.399V99.96H185.419L184.639 100.44C184.652 99.76 184.512 99.1533 184.219 98.62C183.925 98.0867 183.519 97.6733 182.999 97.38C182.492 97.0733 181.899 96.92 181.219 96.92C180.552 96.92 179.959 97.0733 179.439 97.38C178.919 97.6733 178.512 98.0933 178.219 98.64C177.925 99.1733 177.779 99.7867 177.779 100.48V100.8C177.779 101.507 177.939 102.14 178.259 102.7C178.592 103.247 179.052 103.673 179.639 103.98C180.225 104.287 180.899 104.44 181.659 104.44C182.285 104.44 182.852 104.333 183.359 104.12C183.879 103.907 184.332 103.587 184.719 103.16L185.779 104.4C185.299 104.96 184.699 105.387 183.979 105.68C183.272 105.973 182.479 106.12 181.599 106.12ZM193.845 106.12C192.711 106.12 191.711 105.887 190.845 105.42C189.991 104.953 189.325 104.313 188.845 103.5C188.378 102.687 188.145 101.753 188.145 100.7C188.145 99.6467 188.371 98.7133 188.825 97.9C189.291 97.0867 189.925 96.4533 190.725 96C191.538 95.5333 192.451 95.3 193.465 95.3C194.491 95.3 195.398 95.5267 196.185 95.98C196.971 96.4333 197.585 97.0733 198.025 97.9C198.478 98.7133 198.705 99.6667 198.705 100.76C198.705 100.84 198.698 100.933 198.685 101.04C198.685 101.147 198.678 101.247 198.665 101.34H189.645V99.96H197.665L196.885 100.44C196.898 99.76 196.758 99.1533 196.465 98.62C196.171 98.0867 195.765 97.6733 195.245 97.38C194.738 97.0733 194.145 96.92 193.465 96.92C192.798 96.92 192.205 97.0733 191.685 97.38C191.165 97.6733 190.758 98.0933 190.465 98.64C190.171 99.1733 190.025 99.7867 190.025 100.48V100.8C190.025 101.507 190.185 102.14 190.505 102.7C190.838 103.247 191.298 103.673 191.885 103.98C192.471 104.287 193.145 104.44 193.905 104.44C194.531 104.44 195.098 104.333 195.605 104.12C196.125 103.907 196.578 103.587 196.965 103.16L198.025 104.4C197.545 104.96 196.945 105.387 196.225 105.68C195.518 105.973 194.725 106.12 193.845 106.12ZM207.031 95.3C207.897 95.3 208.657 95.4667 209.311 95.8C209.977 96.1333 210.497 96.64 210.871 97.32C211.244 98 211.431 98.86 211.431 99.9V106H209.511V100.12C209.511 99.0933 209.257 98.32 208.751 97.8C208.257 97.28 207.557 97.02 206.651 97.02C205.971 97.02 205.377 97.1533 204.871 97.42C204.364 97.6867 203.971 98.08 203.691 98.6C203.424 99.12 203.291 99.7667 203.291 100.54V106H201.371V95.4H203.211V98.26L202.911 97.5C203.257 96.8067 203.791 96.2667 204.511 95.88C205.231 95.4933 206.071 95.3 207.031 95.3ZM69.06 154L65.12 143.4H66.94L70.44 153H69.58L73.22 143.4H74.84L78.4 153H77.56L81.14 143.4H82.86L78.9 154H77.06L73.72 145.24H74.28L70.9 154H69.06ZM91.0563 154V151.76L90.9563 151.34V147.52C90.9563 146.707 90.7163 146.08 90.2363 145.64C89.7696 145.187 89.0629 144.96 88.1163 144.96C87.4896 144.96 86.8763 145.067 86.2763 145.28C85.6763 145.48 85.1696 145.753 84.7563 146.1L83.9563 144.66C84.5029 144.22 85.1563 143.887 85.9163 143.66C86.6896 143.42 87.4963 143.3 88.3363 143.3C89.7896 143.3 90.9096 143.653 91.6963 144.36C92.4829 145.067 92.8763 146.147 92.8763 147.6V154H91.0563ZM87.5763 154.12C86.7896 154.12 86.0963 153.987 85.4963 153.72C84.9096 153.453 84.4563 153.087 84.1363 152.62C83.8163 152.14 83.6563 151.6 83.6563 151C83.6563 150.427 83.7896 149.907 84.0563 149.44C84.3363 148.973 84.7829 148.6 85.3963 148.32C86.0229 148.04 86.8629 147.9 87.9163 147.9H91.2763V149.28H87.9963C87.0363 149.28 86.3896 149.44 86.0563 149.76C85.7229 150.08 85.5563 150.467 85.5563 150.92C85.5563 151.44 85.7629 151.86 86.1763 152.18C86.5896 152.487 87.1629 152.64 87.8963 152.64C88.6163 152.64 89.2429 152.48 89.7763 152.16C90.3229 151.84 90.7163 151.373 90.9563 150.76L91.3363 152.08C91.0829 152.707 90.6363 153.207 89.9963 153.58C89.3563 153.94 88.5496 154.12 87.5763 154.12ZM96.4294 154V143.4H98.2694V146.28L98.0894 145.56C98.3827 144.827 98.876 144.267 99.5694 143.88C100.263 143.493 101.116 143.3 102.129 143.3V145.16C102.049 145.147 101.969 145.14 101.889 145.14C101.823 145.14 101.756 145.14 101.689 145.14C100.663 145.14 99.8494 145.447 99.2494 146.06C98.6494 146.673 98.3494 147.56 98.3494 148.72V154H96.4294ZM110.156 143.3C111.022 143.3 111.782 143.467 112.436 143.8C113.102 144.133 113.622 144.64 113.996 145.32C114.369 146 114.556 146.86 114.556 147.9V154H112.636V148.12C112.636 147.093 112.382 146.32 111.876 145.8C111.382 145.28 110.682 145.02 109.776 145.02C109.096 145.02 108.502 145.153 107.996 145.42C107.489 145.687 107.096 146.08 106.816 146.6C106.549 147.12 106.416 147.767 106.416 148.54V154H104.496V143.4H106.336V146.26L106.036 145.5C106.382 144.807 106.916 144.267 107.636 143.88C108.356 143.493 109.196 143.3 110.156 143.3ZM118.109 154V143.4H120.029V154H118.109ZM119.069 141.36C118.696 141.36 118.382 141.24 118.129 141C117.889 140.76 117.769 140.467 117.769 140.12C117.769 139.76 117.889 139.46 118.129 139.22C118.382 138.98 118.696 138.86 119.069 138.86C119.442 138.86 119.749 138.98 119.989 139.22C120.242 139.447 120.369 139.733 120.369 140.08C120.369 140.44 120.249 140.747 120.009 141C119.769 141.24 119.456 141.36 119.069 141.36ZM129.355 143.3C130.222 143.3 130.982 143.467 131.635 143.8C132.302 144.133 132.822 144.64 133.195 145.32C133.568 146 133.755 146.86 133.755 147.9V154H131.835V148.12C131.835 147.093 131.582 146.32 131.075 145.8C130.582 145.28 129.882 145.02 128.975 145.02C128.295 145.02 127.702 145.153 127.195 145.42C126.688 145.687 126.295 146.08 126.015 146.6C125.748 147.12 125.615 147.767 125.615 148.54V154H123.695V143.4H125.535V146.26L125.235 145.5C125.582 144.807 126.115 144.267 126.835 143.88C127.555 143.493 128.395 143.3 129.355 143.3ZM141.948 158C140.975 158 140.028 157.86 139.108 157.58C138.202 157.313 137.462 156.927 136.888 156.42L137.808 154.94C138.302 155.367 138.908 155.7 139.628 155.94C140.348 156.193 141.102 156.32 141.888 156.32C143.142 156.32 144.062 156.027 144.648 155.44C145.235 154.853 145.528 153.96 145.528 152.76V150.52L145.728 148.42L145.628 146.3V143.4H147.448V152.56C147.448 154.427 146.982 155.8 146.048 156.68C145.115 157.56 143.748 158 141.948 158ZM141.708 153.56C140.682 153.56 139.762 153.347 138.948 152.92C138.148 152.48 137.508 151.873 137.028 151.1C136.562 150.327 136.328 149.433 136.328 148.42C136.328 147.393 136.562 146.5 137.028 145.74C137.508 144.967 138.148 144.367 138.948 143.94C139.762 143.513 140.682 143.3 141.708 143.3C142.615 143.3 143.442 143.487 144.188 143.86C144.935 144.22 145.528 144.78 145.968 145.54C146.422 146.3 146.648 147.26 146.648 148.42C146.648 149.567 146.422 150.52 145.968 151.28C145.528 152.04 144.935 152.613 144.188 153C143.442 153.373 142.615 153.56 141.708 153.56ZM141.928 151.88C142.635 151.88 143.262 151.733 143.808 151.44C144.355 151.147 144.782 150.74 145.088 150.22C145.408 149.7 145.568 149.1 145.568 148.42C145.568 147.74 145.408 147.14 145.088 146.62C144.782 146.1 144.355 145.7 143.808 145.42C143.262 145.127 142.635 144.98 141.928 144.98C141.222 144.98 140.588 145.127 140.028 145.42C139.482 145.7 139.048 146.1 138.728 146.62C138.422 147.14 138.268 147.74 138.268 148.42C138.268 149.1 138.422 149.7 138.728 150.22C139.048 150.74 139.482 151.147 140.028 151.44C140.588 151.733 141.222 151.88 141.928 151.88ZM151.577 146.04C151.204 146.04 150.884 145.913 150.617 145.66C150.35 145.393 150.217 145.06 150.217 144.66C150.217 144.26 150.35 143.933 150.617 143.68C150.884 143.427 151.204 143.3 151.577 143.3C151.937 143.3 152.244 143.427 152.497 143.68C152.764 143.933 152.897 144.26 152.897 144.66C152.897 145.06 152.764 145.393 152.497 145.66C152.244 145.913 151.937 146.04 151.577 146.04ZM151.577 154.12C151.204 154.12 150.884 153.993 150.617 153.74C150.35 153.473 150.217 153.14 150.217 152.74C150.217 152.34 150.35 152.013 150.617 151.76C150.884 151.507 151.204 151.38 151.577 151.38C151.937 151.38 152.244 151.507 152.497 151.76C152.764 152.013 152.897 152.34 152.897 152.74C152.897 153.14 152.764 153.473 152.497 153.74C152.244 153.993 151.937 154.12 151.577 154.12ZM165.559 154.12C164.493 154.12 163.546 153.887 162.719 153.42C161.893 152.953 161.239 152.313 160.759 151.5C160.279 150.673 160.039 149.74 160.039 148.7C160.039 147.647 160.279 146.713 160.759 145.9C161.239 145.087 161.893 144.453 162.719 144C163.546 143.533 164.493 143.3 165.559 143.3C166.613 143.3 167.553 143.533 168.379 144C169.219 144.453 169.873 145.087 170.339 145.9C170.819 146.7 171.059 147.633 171.059 148.7C171.059 149.753 170.819 150.687 170.339 151.5C169.873 152.313 169.219 152.953 168.379 153.42C167.553 153.887 166.613 154.12 165.559 154.12ZM165.559 152.44C166.239 152.44 166.846 152.287 167.379 151.98C167.926 151.673 168.353 151.24 168.659 150.68C168.966 150.107 169.119 149.447 169.119 148.7C169.119 147.94 168.966 147.287 168.659 146.74C168.353 146.18 167.926 145.747 167.379 145.44C166.846 145.133 166.239 144.98 165.559 144.98C164.879 144.98 164.273 145.133 163.739 145.44C163.206 145.747 162.779 146.18 162.459 146.74C162.139 147.287 161.979 147.94 161.979 148.7C161.979 149.447 162.139 150.107 162.459 150.68C162.779 151.24 163.206 151.673 163.739 151.98C164.273 152.287 164.879 152.44 165.559 152.44ZM173.715 154V143.4H175.555V146.28L175.375 145.56C175.668 144.827 176.161 144.267 176.855 143.88C177.548 143.493 178.401 143.3 179.415 143.3V145.16C179.335 145.147 179.255 145.14 179.175 145.14C179.108 145.14 179.041 145.14 178.975 145.14C177.948 145.14 177.135 145.447 176.535 146.06C175.935 146.673 175.635 147.56 175.635 148.72V154H173.715ZM187.58 154V151.76L187.48 151.34V147.52C187.48 146.707 187.24 146.08 186.76 145.64C186.293 145.187 185.586 144.96 184.64 144.96C184.013 144.96 183.4 145.067 182.8 145.28C182.2 145.48 181.693 145.753 181.28 146.1L180.48 144.66C181.026 144.22 181.68 143.887 182.44 143.66C183.213 143.42 184.02 143.3 184.86 143.3C186.313 143.3 187.433 143.653 188.22 144.36C189.006 145.067 189.4 146.147 189.4 147.6V154H187.58ZM184.1 154.12C183.313 154.12 182.62 153.987 182.02 153.72C181.433 153.453 180.98 153.087 180.66 152.62C180.34 152.14 180.18 151.6 180.18 151C180.18 150.427 180.313 149.907 180.58 149.44C180.86 148.973 181.306 148.6 181.92 148.32C182.546 148.04 183.386 147.9 184.44 147.9H187.8V149.28H184.52C183.56 149.28 182.913 149.44 182.58 149.76C182.246 150.08 182.08 150.467 182.08 150.92C182.08 151.44 182.286 151.86 182.7 152.18C183.113 152.487 183.686 152.64 184.42 152.64C185.14 152.64 185.766 152.48 186.3 152.16C186.846 151.84 187.24 151.373 187.48 150.76L187.86 152.08C187.606 152.707 187.16 153.207 186.52 153.58C185.88 153.94 185.073 154.12 184.1 154.12ZM198.613 143.3C199.479 143.3 200.239 143.467 200.893 143.8C201.559 144.133 202.079 144.64 202.453 145.32C202.826 146 203.013 146.86 203.013 147.9V154H201.093V148.12C201.093 147.093 200.839 146.32 200.333 145.8C199.839 145.28 199.139 145.02 198.233 145.02C197.553 145.02 196.959 145.153 196.453 145.42C195.946 145.687 195.553 146.08 195.273 146.6C195.006 147.12 194.873 147.767 194.873 148.54V154H192.953V143.4H194.793V146.26L194.493 145.5C194.839 144.807 195.373 144.267 196.093 143.88C196.813 143.493 197.653 143.3 198.613 143.3ZM211.206 158C210.233 158 209.286 157.86 208.366 157.58C207.459 157.313 206.719 156.927 206.146 156.42L207.066 154.94C207.559 155.367 208.166 155.7 208.886 155.94C209.606 156.193 210.359 156.32 211.146 156.32C212.399 156.32 213.319 156.027 213.906 155.44C214.493 154.853 214.786 153.96 214.786 152.76V150.52L214.986 148.42L214.886 146.3V143.4H216.706V152.56C216.706 154.427 216.239 155.8 215.306 156.68C214.373 157.56 213.006 158 211.206 158ZM210.966 153.56C209.939 153.56 209.019 153.347 208.206 152.92C207.406 152.48 206.766 151.873 206.286 151.1C205.819 150.327 205.586 149.433 205.586 148.42C205.586 147.393 205.819 146.5 206.286 145.74C206.766 144.967 207.406 144.367 208.206 143.94C209.019 143.513 209.939 143.3 210.966 143.3C211.873 143.3 212.699 143.487 213.446 143.86C214.193 144.22 214.786 144.78 215.226 145.54C215.679 146.3 215.906 147.26 215.906 148.42C215.906 149.567 215.679 150.52 215.226 151.28C214.786 152.04 214.193 152.613 213.446 153C212.699 153.373 211.873 153.56 210.966 153.56ZM211.186 151.88C211.893 151.88 212.519 151.733 213.066 151.44C213.613 151.147 214.039 150.74 214.346 150.22C214.666 149.7 214.826 149.1 214.826 148.42C214.826 147.74 214.666 147.14 214.346 146.62C214.039 146.1 213.613 145.7 213.066 145.42C212.519 145.127 211.893 144.98 211.186 144.98C210.479 144.98 209.846 145.127 209.286 145.42C208.739 145.7 208.306 146.1 207.986 146.62C207.679 147.14 207.526 147.74 207.526 148.42C207.526 149.1 207.679 149.7 207.986 150.22C208.306 150.74 208.739 151.147 209.286 151.44C209.846 151.733 210.479 151.88 211.186 151.88ZM225.095 154.12C223.961 154.12 222.961 153.887 222.095 153.42C221.241 152.953 220.575 152.313 220.095 151.5C219.628 150.687 219.395 149.753 219.395 148.7C219.395 147.647 219.621 146.713 220.075 145.9C220.541 145.087 221.175 144.453 221.975 144C222.788 143.533 223.701 143.3 224.715 143.3C225.741 143.3 226.648 143.527 227.435 143.98C228.221 144.433 228.835 145.073 229.275 145.9C229.728 146.713 229.955 147.667 229.955 148.76C229.955 148.84 229.948 148.933 229.935 149.04C229.935 149.147 229.928 149.247 229.915 149.34H220.895V147.96H228.915L228.135 148.44C228.148 147.76 228.008 147.153 227.715 146.62C227.421 146.087 227.015 145.673 226.495 145.38C225.988 145.073 225.395 144.92 224.715 144.92C224.048 144.92 223.455 145.073 222.935 145.38C222.415 145.673 222.008 146.093 221.715 146.64C221.421 147.173 221.275 147.787 221.275 148.48V148.8C221.275 149.507 221.435 150.14 221.755 150.7C222.088 151.247 222.548 151.673 223.135 151.98C223.721 152.287 224.395 152.44 225.155 152.44C225.781 152.44 226.348 152.333 226.855 152.12C227.375 151.907 227.828 151.587 228.215 151.16L229.275 152.4C228.795 152.96 228.195 153.387 227.475 153.68C226.768 153.973 225.975 154.12 225.095 154.12Z" fill="white"/>
</svg>
